<svg xmlns="http://www.w3.org/2000/svg" xmlns:xlink="http://www.w3.org/1999/xlink" version="1.1" x="0px" y="0px" viewBox="0 0 100 125"
    enable-background="new 0 0 100 100" xml:space="preserve">
    <path
        d="M90.641,61.037l-5.694-1.351c-0.031-0.076-0.062-0.153-0.093-0.229l3.339-4.687c0.68-0.992,0.654-2.014-0.066-2.735  l-4.271-4.27c-0.305-0.305-0.678-0.477-1.08-0.527V29.893v-9.031c0-1.489-1.211-2.701-2.701-2.701H10.201  c-1.489,0-2.701,1.211-2.701,2.701v9.031v40.731v1.041c0,1.489,1.212,2.701,2.701,2.701h43.651l-1.495,2.1  c-0.679,1.012-0.651,2.007,0.07,2.729l4.27,4.269c0.748,0.749,1.695,0.792,2.743,0.063l4.678-3.333  c0.076,0.031,0.152,0.063,0.229,0.092l1.351,5.692c0.275,1.184,0.996,1.861,1.976,1.861h5.206c0.59,0,1.632-0.243,1.975-1.859  l1.351-5.694c0.078-0.029,0.153-0.061,0.229-0.092l4.692,3.342c0.491,0.328,0.97,0.495,1.421,0.495c0.485,0,0.938-0.196,1.308-0.566  l4.271-4.269c0.739-0.741,0.761-1.767,0.061-2.743l-3.333-4.679c0.031-0.075,0.062-0.152,0.093-0.229l5.739-1.364  c0.496-0.161,1.814-0.591,1.814-1.962v-5.206C92.5,62.285,92.174,61.351,90.641,61.037z M52.366,54.778l3.333,4.679  c-0.031,0.076-0.063,0.152-0.093,0.229l-5.635,1.337c-1.064,0.037-1.918,0.916-1.918,1.989v5.206c0,0.586,0.242,1.622,1.858,1.976  l2.399,0.568H8.781c-0.077,0-0.139-0.062-0.139-0.139V29.893c0-0.076,0.062-0.139,0.139-0.139h72.713  c0.077,0,0.139,0.063,0.139,0.139v17.529c-0.174,0.076-0.349,0.165-0.521,0.283l-4.678,3.333c-0.076-0.031-0.151-0.063-0.229-0.093  l-1.346-5.674c-0.31-1.554-1.247-1.88-1.979-1.88h-5.206c-1.012,0-1.79,0.745-1.976,1.86l-1.351,5.694  c-0.084,0.033-0.168,0.068-0.252,0.102l-5.39-3.359c-1.014-0.646-1.999-0.645-2.754,0.116l-3.57,4.283  C51.737,52.912,51.731,53.895,52.366,54.778z M10.201,19.303h69.873c0.859,0,1.559,0.699,1.559,1.559v7.764  c-0.046-0.005-0.091-0.014-0.139-0.014H8.781c-0.048,0-0.093,0.009-0.139,0.014v-7.764C8.643,20.002,9.342,19.303,10.201,19.303z   M10.201,73.224c-0.781,0-1.425-0.58-1.536-1.329c0.039,0.003,0.076,0.011,0.116,0.011h46.825l-0.939,1.318H10.201z M91.357,68.219  c0,0.286-0.079,0.567-0.981,0.863l-5.986,1.42c-0.183,0.045-0.334,0.176-0.401,0.353c-0.097,0.256-0.197,0.509-0.308,0.757  c-0.082,0.185-0.062,0.398,0.057,0.563l3.52,4.941c0.557,0.775,0.184,1.149,0.062,1.271l-4.271,4.269  c-0.344,0.345-0.754,0.285-1.272-0.062l-4.939-3.519c-0.165-0.118-0.381-0.139-0.565-0.057c-0.248,0.111-0.501,0.211-0.756,0.31  c-0.177,0.066-0.308,0.217-0.352,0.4l-1.422,6c-0.207,0.967-0.666,0.967-0.861,0.967h-5.206c-0.157,0-0.636,0-0.864-0.979  l-1.42-5.986c-0.044-0.185-0.175-0.335-0.352-0.401c-0.255-0.099-0.508-0.198-0.755-0.31c-0.075-0.033-0.155-0.05-0.234-0.05  c-0.117,0-0.233,0.036-0.332,0.106l-4.934,3.516c-0.3,0.208-0.559,0.313-0.77,0.313c-0.112,0-0.286-0.026-0.509-0.249l-4.27-4.269  c-0.116-0.117-0.474-0.474,0.062-1.273l3.52-4.939c0.117-0.165,0.14-0.38,0.056-0.564c-0.111-0.248-0.211-0.501-0.309-0.756  c-0.067-0.177-0.218-0.308-0.401-0.353l-5.996-1.422c-0.971-0.212-0.971-0.668-0.971-0.861v-5.206c0-0.468,0.381-0.849,0.849-0.849  c0.044,0,0.089-0.006,0.132-0.016l5.986-1.419c0.184-0.045,0.334-0.176,0.401-0.353c0.098-0.255,0.197-0.508,0.309-0.756  c0.084-0.185,0.062-0.4-0.056-0.565l-3.521-4.94c-0.501-0.7-0.135-1.17-0.025-1.31l3.523-4.231c0.321-0.32,0.754-0.27,1.303,0.081  l5.649,3.521c0.161,0.1,0.362,0.113,0.535,0.036c0.248-0.112,0.501-0.212,0.757-0.309c0.177-0.067,0.308-0.218,0.352-0.402  l1.428-6.023c0.037-0.221,0.209-0.943,0.856-0.943h5.206c0.322,0,0.683,0.074,0.863,0.981l1.42,5.986  c0.044,0.184,0.175,0.333,0.352,0.4C75.77,52,76.022,52.1,76.271,52.211c0.184,0.083,0.399,0.063,0.565-0.055l4.932-3.516  c0.509-0.35,0.953-0.395,1.28-0.066l4.271,4.27c0.119,0.119,0.48,0.481-0.062,1.273l-3.52,4.938  c-0.118,0.165-0.139,0.38-0.057,0.564c0.11,0.248,0.211,0.502,0.308,0.757c0.068,0.177,0.219,0.308,0.401,0.353l6.004,1.423  c0.964,0.196,0.964,0.629,0.964,0.86V68.219z"
        fill="#b15bd3" />
    <path
        d="M70.275,57.972c-4.215,0-7.643,3.429-7.643,7.644s3.428,7.645,7.643,7.645c4.216,0,7.645-3.43,7.645-7.645  S74.491,57.972,70.275,57.972z M70.275,72.117c-3.584,0-6.5-2.917-6.5-6.502s2.916-6.501,6.5-6.501c3.586,0,6.503,2.916,6.503,6.501  S73.861,72.117,70.275,72.117z"
        fill="#b15bd3" />
    <path
        d="M25.326,26.284c1.269,0,2.301-1.033,2.301-2.302s-1.032-2.301-2.301-2.301c-1.27,0-2.302,1.032-2.302,2.301  S24.057,26.284,25.326,26.284z M25.326,22.823c0.639,0,1.159,0.52,1.159,1.159s-0.521,1.159-1.159,1.159  c-0.64,0-1.159-0.52-1.159-1.159S24.687,22.823,25.326,22.823z"
        fill="#b15bd3" />
    <path
        d="M19.545,26.284c1.27,0,2.302-1.033,2.302-2.302s-1.032-2.301-2.302-2.301c-1.269,0-2.301,1.032-2.301,2.301  S18.276,26.284,19.545,26.284z M19.545,22.823c0.64,0,1.16,0.52,1.16,1.159s-0.521,1.159-1.16,1.159  c-0.639,0-1.159-0.52-1.159-1.159S18.906,22.823,19.545,22.823z"
        fill="#b15bd3" />
    <path
        d="M13.765,26.284c1.27,0,2.302-1.033,2.302-2.302s-1.032-2.301-2.302-2.301c-1.269,0-2.301,1.032-2.301,2.301  S12.496,26.284,13.765,26.284z M13.765,22.823c0.64,0,1.16,0.52,1.16,1.159s-0.521,1.159-1.16,1.159  c-0.639,0-1.159-0.52-1.159-1.159S13.126,22.823,13.765,22.823z"
        fill="#b15bd3" />
</svg>
