<svg xmlns="http://www.w3.org/2000/svg" xmlns:xlink="http://www.w3.org/1999/xlink" version="1.1" x="0px" y="0px"
  viewBox="0 0 100 125" enable-background="new 0 0 100 100" xml:space="preserve">
  <g>
    <path
      d="M89.405,18.435H10.595c-1.706,0-3.095,1.389-3.095,3.095v56.941c0,1.706,1.389,3.095,3.095,3.095h78.811   c1.707,0,3.095-1.389,3.095-3.095V77.14V32.027V21.529C92.5,19.823,91.112,18.435,89.405,18.435z M10.595,19.673h78.811   c1.023,0,1.857,0.833,1.857,1.856v9.075c-0.068-0.01-0.136-0.021-0.207-0.021H8.951c-0.073,0-0.143,0.011-0.213,0.021v-9.076   C8.738,20.506,9.571,19.673,10.595,19.673z M91.263,77.14c0,0.114-0.093,0.206-0.207,0.206H8.951c-0.113,0-0.206-0.092-0.206-0.206   V32.027c0-0.113,0.093-0.206,0.206-0.206h82.104c0.114,0,0.207,0.093,0.207,0.206V77.14z M89.405,80.327H10.595   c-0.992,0-1.798-0.784-1.848-1.764c0.067,0.01,0.135,0.021,0.204,0.021h82.104c0.068,0,0.133-0.011,0.197-0.02   C91.202,79.544,90.396,80.327,89.405,80.327z"
      fill="#b15bd3" />
    <path
      d="M28.178,27.787c1.45,0,2.63-1.18,2.63-2.63c0-1.451-1.18-2.631-2.63-2.631s-2.631,1.18-2.631,2.631   C25.547,26.607,26.728,27.787,28.178,27.787z M28.178,23.765c0.768,0,1.393,0.624,1.393,1.393c0,0.768-0.625,1.393-1.393,1.393   c-0.769,0-1.393-0.625-1.393-1.393C26.785,24.389,27.409,23.765,28.178,23.765z"
      fill="#b15bd3" />
    <path
      d="M21.458,27.787c1.451,0,2.631-1.18,2.631-2.63c0-1.451-1.18-2.631-2.631-2.631c-1.45,0-2.63,1.18-2.63,2.631   C18.828,26.607,20.008,27.787,21.458,27.787z M21.458,23.765c0.769,0,1.393,0.624,1.393,1.393c0,0.768-0.624,1.393-1.393,1.393   c-0.768,0-1.393-0.625-1.393-1.393C20.065,24.389,20.69,23.765,21.458,23.765z"
      fill="#b15bd3" />
    <path
      d="M14.738,27.787c1.451,0,2.631-1.18,2.631-2.63c0-1.451-1.18-2.631-2.631-2.631c-1.45,0-2.63,1.18-2.63,2.631   C12.108,26.607,13.288,27.787,14.738,27.787z M14.738,23.765c0.769,0,1.393,0.624,1.393,1.393c0,0.768-0.624,1.393-1.393,1.393   c-0.768,0-1.393-0.625-1.393-1.393C13.346,24.389,13.971,23.765,14.738,23.765z"
      fill="#b15bd3" />
  </g>
  <path
    d="M26.598,65.915c-0.624,0-1.395-0.429-2.289-1.276c-1.605-1.519-2.16-2.371-1.2-3.405l8.79-8.811l-8.774-8.782  c-0.676-0.676-0.57-1.195-0.401-1.57c0.242-0.544,0.814-1.117,1.479-1.781c0.829-0.829,1.542-1.542,2.241-1.542  c0.342,0,0.679,0.172,1.033,0.526l11.769,11.755c0.311,0.254,0.521,0.659,0.564,1.134c0.048,0.537-0.134,1.152-0.452,1.533  L27.53,65.514C27.243,65.787,26.941,65.915,26.598,65.915z M23.846,42.57c-0.009,0,0.027,0.068,0.154,0.194l9.211,9.221  c0.241,0.242,0.241,0.633,0,0.875L24,62.093c-0.093,0.1-0.125,0.147-0.133,0.166c0.012,0.047,0.125,0.377,1.292,1.48  c0.979,0.927,1.42,0.938,1.438,0.938v0.619l0.01-0.62c-0.001,0.001-0.001,0.001-0.001,0.001c-0.003,0,0.02-0.012,0.061-0.05  l11.777-11.767c0.061-0.077,0.151-0.357,0.131-0.589c-0.013-0.145-0.063-0.246-0.162-0.328L26.601,40.148  c-0.144-0.143-0.215-0.171-0.215-0.171c-0.182,0.06-0.886,0.764-1.307,1.184c-0.531,0.532-1.077,1.078-1.227,1.413  C23.85,42.571,23.848,42.57,23.846,42.57z"
    fill="#b15bd3" />
  <path
    d="M55.834,71.436H40.498c-1.594,0-1.92-1.234-1.92-3.088s0.326-3.088,1.92-3.088h15.336c1.503,0,1.787,1.085,1.787,3.088  C57.621,70.396,57.346,71.436,55.834,71.436z M40.498,66.497c-0.366,0-0.683,0-0.683,1.851s0.316,1.851,0.683,1.851h15.336  c0.354,0,0.55,0,0.55-1.851s-0.219-1.851-0.55-1.851H40.498z"
    fill="#b15bd3" />

</svg>
