<?xml version="1.0" encoding="UTF-8" standalone="no"?>
<!DOCTYPE svg PUBLIC "-//W3C//DTD SVG 1.1//EN" "http://www.w3.org/Graphics/SVG/1.1/DTD/svg11.dtd">
<svg width="100%" height="100%" viewBox="0 0 346 387" version="1.1" xmlns="http://www.w3.org/2000/svg"
    xmlns:xlink="http://www.w3.org/1999/xlink" xml:space="preserve" xmlns:serif="http://www.serif.com/"
    style="fill-rule:evenodd;clip-rule:evenodd;stroke-linejoin:round;stroke-miterlimit:2;">
    <g id="surface1" transform="matrix(1,0,0,1,-180,-186)">
        <g>
            <g>
                <clipPath id="_clip1">
                    <path
                        d="M505.986,415.19C517.278,413.192 524.853,402.379 522.873,391.076L516.846,356.902C514.857,345.61 504.032,338.032 492.726,340.015L478.375,342.542C475.525,336.711 472.261,331.066 468.623,325.687L477.998,314.507C481.558,310.265 483.253,304.868 482.767,299.316C482.28,293.761 479.673,288.741 475.427,285.181L448.849,262.885C444.604,259.316 439.21,257.621 433.655,258.102C428.102,258.585 423.086,261.19 419.522,265.438L410.165,276.606C405.514,274.528 400.73,272.706 395.868,271.157L395.868,220.379C400.658,217.564 403.766,212.345 403.766,206.62L403.766,206.151C403.766,197.364 396.617,190.217 387.829,190.217L319.539,190.217C310.749,190.217 303.599,197.364 303.599,206.151L303.599,206.62C303.599,212.351 306.713,217.572 311.497,220.382L311.497,271.155C306.639,272.697 301.855,274.522 297.198,276.603L287.832,265.435C280.463,256.648 267.31,255.494 258.508,262.868L231.927,285.178C223.137,292.552 221.988,305.706 229.362,314.502L238.734,325.684C235.093,331.075 231.826,336.719 228.985,342.539L214.634,340.012C203.325,338.029 192.506,345.604 190.52,356.899L184.495,391.076C183.531,396.533 184.76,402.051 187.955,406.613C191.153,411.178 195.919,414.223 201.38,415.181L215.754,417.717C216.427,424.211 217.553,430.635 219.113,436.901L206.497,444.186C196.558,449.925 193.136,462.685 198.875,472.635L216.22,502.673C218.989,507.477 223.479,510.919 228.861,512.364C230.669,512.847 232.5,513.086 234.319,513.086C237.919,513.086 241.465,512.148 244.66,510.306L257.31,502.998C262.002,507.525 266.993,511.716 272.22,515.51L267.226,529.225C265.332,534.435 265.583,540.085 267.934,545.136C270.289,550.193 274.454,554.021 279.66,555.915L312.269,567.788C314.609,568.637 317.003,569.04 319.361,569.04C327.872,569.04 335.879,563.782 338.947,555.34L343.944,541.616C347.194,541.843 350.455,541.961 353.681,541.961C356.919,541.961 360.178,541.84 363.416,541.616L368.415,555.337C371.484,563.782 379.491,569.04 388.005,569.037C390.359,569.037 392.757,568.634 395.097,567.785L427.699,555.915C438.479,551.995 444.06,540.021 440.137,529.228L435.143,515.51C440.378,511.708 445.372,507.52 450.049,502.998L462.694,510.294C465.889,512.139 469.44,513.083 473.047,513.083C474.866,513.083 476.697,512.845 478.504,512.358C483.884,510.913 488.371,507.474 491.131,502.678L508.484,472.635C514.224,462.69 510.804,449.928 500.866,444.189L488.247,436.904C489.81,430.615 490.935,424.19 491.606,417.717L505.995,415.19L505.986,415.19ZM313.69,206.154C313.69,202.931 316.315,200.306 319.545,200.306L387.835,200.306C391.062,200.306 393.69,202.928 393.69,206.154L393.69,206.623C393.69,209.228 391.945,211.542 389.424,212.265C388.926,212.409 388.394,212.484 387.832,212.484L319.545,212.484C318.986,212.484 318.451,212.409 317.93,212.256C315.432,211.545 313.688,209.228 313.688,206.623L313.688,206.154L313.69,206.154ZM318.166,296.268C320.21,295.571 321.583,293.651 321.583,291.495L321.583,222.569L385.786,222.569L385.786,291.495C385.786,293.654 387.162,295.574 389.205,296.271C433.914,311.482 463.951,353.451 463.951,400.701C463.951,461.505 414.485,510.968 353.684,510.968C292.883,510.968 243.42,461.502 243.42,400.701C243.411,353.454 273.446,311.479 318.157,296.271L318.166,296.268ZM477.361,439.624C477.364,439.687 477.37,439.748 477.376,439.811C477.387,439.912 477.399,440.015 477.413,440.116C477.422,440.174 477.433,440.228 477.445,440.286C477.462,440.389 477.485,440.49 477.508,440.588C477.525,440.648 477.543,440.706 477.56,440.766C477.586,440.859 477.615,440.954 477.649,441.046C477.672,441.109 477.698,441.172 477.724,441.238C477.756,441.319 477.79,441.403 477.828,441.483C477.859,441.552 477.897,441.624 477.934,441.693C477.972,441.762 478.009,441.834 478.049,441.903C478.093,441.978 478.136,442.047 478.185,442.119C478.225,442.183 478.268,442.246 478.314,442.309C478.363,442.378 478.415,442.444 478.467,442.508C478.519,442.571 478.57,442.634 478.622,442.695C478.674,442.752 478.729,442.81 478.783,442.865C478.847,442.931 478.91,442.994 478.976,443.055C479.028,443.101 479.08,443.147 479.132,443.193C479.209,443.256 479.29,443.322 479.37,443.383C479.419,443.42 479.468,443.455 479.517,443.489C479.609,443.553 479.701,443.613 479.799,443.671C479.825,443.685 479.848,443.702 479.874,443.72L495.826,452.927C500.952,455.889 502.713,462.469 499.752,467.598L482.396,497.647C480.979,500.114 478.668,501.881 475.891,502.627C473.107,503.375 470.215,502.998 467.739,501.567L451.756,492.348C451.722,492.328 451.687,492.311 451.653,492.294C451.572,492.25 451.491,492.207 451.408,492.167C451.336,492.132 451.261,492.101 451.186,492.069C451.114,492.037 451.039,492.009 450.965,491.98C450.878,491.948 450.789,491.919 450.703,491.894C450.639,491.873 450.579,491.856 450.516,491.842C450.415,491.813 450.314,491.79 450.213,491.77C450.159,491.761 450.107,491.75 450.052,491.741C449.943,491.724 449.833,491.709 449.724,491.698C449.675,491.692 449.626,491.689 449.574,491.686C449.465,491.681 449.353,491.675 449.243,491.675C449.189,491.675 449.137,491.678 449.082,491.678C448.979,491.681 448.875,491.686 448.769,491.698C448.708,491.704 448.645,491.712 448.581,491.721C448.489,491.732 448.394,491.744 448.302,491.764C448.23,491.778 448.158,491.793 448.086,491.81C448.003,491.83 447.922,491.85 447.842,491.873C447.764,491.896 447.686,491.922 447.609,491.948C447.534,491.974 447.459,492 447.387,492.029C447.306,492.06 447.231,492.092 447.154,492.127C447.082,492.161 447.01,492.196 446.938,492.23C446.866,492.268 446.797,492.308 446.728,492.345C446.65,492.389 446.578,492.435 446.503,492.481C446.443,492.521 446.382,492.561 446.325,492.604C446.244,492.659 446.164,492.72 446.086,492.783C446.037,492.823 445.991,492.863 445.942,492.904C445.861,492.973 445.781,493.048 445.703,493.123C445.683,493.146 445.657,493.166 445.634,493.189C439.708,499.245 433.185,504.716 426.246,509.46C426.214,509.48 426.188,509.506 426.157,509.526C426.079,509.583 426.001,509.641 425.926,509.701C425.869,509.75 425.811,509.796 425.757,509.845C425.69,509.903 425.627,509.963 425.564,510.027C425.503,510.084 425.446,510.142 425.391,510.205C425.339,510.26 425.29,510.317 425.241,510.375C425.181,510.444 425.123,510.516 425.069,510.591C425.028,510.643 424.988,510.697 424.951,510.752C424.896,510.833 424.841,510.913 424.792,510.997C424.758,511.051 424.726,511.109 424.694,511.164C424.648,511.25 424.602,511.333 424.559,511.42C424.53,511.483 424.505,511.544 424.476,511.607C424.438,511.69 424.404,511.774 424.372,511.857C424.346,511.929 424.323,512.001 424.3,512.073C424.274,512.154 424.248,512.229 424.228,512.309C424.205,512.393 424.188,512.473 424.171,512.557C424.153,512.629 424.139,512.701 424.127,512.773C424.11,512.862 424.099,512.954 424.087,513.046C424.081,513.112 424.073,513.181 424.067,513.25C424.061,513.343 424.058,513.435 424.056,513.53C424.056,513.602 424.053,513.671 424.056,513.743C424.058,513.829 424.061,513.918 424.07,514.005C424.076,514.085 424.084,514.166 424.093,514.246C424.102,514.324 424.113,514.402 424.127,514.477C424.142,514.569 424.162,514.661 424.182,514.75C424.197,514.819 424.214,514.885 424.234,514.954C424.26,515.052 424.289,515.147 424.323,515.242C424.335,515.277 424.34,515.311 424.355,515.346L430.661,532.679C432.685,538.248 429.812,544.425 424.257,546.446L391.655,558.316C386.088,560.339 379.917,557.455 377.894,551.894L371.579,534.556C371.55,534.478 371.515,534.406 371.486,534.334C371.481,534.325 371.478,534.314 371.472,534.305C371.412,534.155 371.343,534.014 371.265,533.876L371.265,533.873C370.787,532.993 370.076,532.302 369.233,531.847C369.23,531.847 369.227,531.844 369.227,531.844C369.092,531.772 368.954,531.706 368.813,531.646L368.761,531.625C368.631,531.571 368.499,531.522 368.366,531.479C368.338,531.47 368.309,531.461 368.28,531.456C368.156,531.418 368.03,531.384 367.9,531.355C367.866,531.349 367.828,531.34 367.794,531.335C367.667,531.309 367.543,531.289 367.414,531.274C367.376,531.271 367.336,531.269 367.299,531.263C367.172,531.251 367.045,531.245 366.916,531.243L366.792,531.243C366.668,531.243 366.544,531.248 366.421,531.26C366.392,531.263 366.369,531.26 366.343,531.263C357.99,532.086 349.444,532.089 341.02,531.263C340.991,531.26 340.965,531.263 340.936,531.26C340.821,531.251 340.709,531.245 340.594,531.243L340.418,531.243C340.315,531.245 340.214,531.251 340.113,531.26C340.044,531.266 339.972,531.271 339.903,531.28C339.817,531.292 339.73,531.306 339.644,531.32C339.563,531.335 339.483,531.352 339.405,531.369C339.327,531.387 339.252,531.407 339.178,531.427C339.094,531.45 339.014,531.476 338.93,531.502C338.858,531.528 338.786,531.553 338.717,531.579C338.637,531.611 338.559,531.643 338.481,531.677C338.406,531.709 338.334,531.746 338.262,531.781C338.193,531.815 338.124,531.85 338.058,531.89C337.977,531.933 337.9,531.982 337.825,532.031C337.767,532.066 337.713,532.103 337.658,532.141C337.574,532.198 337.494,532.259 337.413,532.322C337.37,532.356 337.324,532.391 337.281,532.428C337.197,532.498 337.12,532.569 337.042,532.644C337.002,532.682 336.964,532.719 336.927,532.757C336.852,532.831 336.78,532.912 336.708,532.995C336.671,533.039 336.636,533.079 336.599,533.125C336.535,533.203 336.475,533.286 336.417,533.367C336.377,533.421 336.34,533.476 336.305,533.534C336.253,533.609 336.207,533.686 336.161,533.767C336.121,533.836 336.083,533.905 336.046,533.977C336.009,534.049 335.974,534.121 335.942,534.196C335.905,534.276 335.868,534.363 335.836,534.446C335.822,534.484 335.801,534.518 335.79,534.556L329.472,551.897C327.451,557.458 321.28,560.336 315.717,558.316L283.111,546.443C280.438,545.47 278.293,543.498 277.079,540.888C275.864,538.277 275.729,535.361 276.707,532.682L283.016,515.346C283.028,515.314 283.034,515.28 283.045,515.248C283.08,515.147 283.111,515.049 283.137,514.949C283.155,514.882 283.172,514.819 283.186,514.753C283.209,514.661 283.227,514.569 283.244,514.474C283.255,514.399 283.267,514.324 283.278,514.246C283.287,514.166 283.296,514.085 283.301,514.002C283.307,513.915 283.313,513.829 283.316,513.743L283.316,513.527C283.313,513.432 283.31,513.34 283.304,513.25C283.299,513.181 283.293,513.112 283.284,513.043C283.273,512.951 283.261,512.862 283.244,512.77C283.232,512.701 283.218,512.629 283.204,512.557C283.183,512.473 283.166,512.39 283.143,512.306C283.123,512.229 283.097,512.151 283.074,512.076C283.048,512.001 283.025,511.926 282.996,511.854C282.968,511.771 282.933,511.69 282.896,511.61C282.87,511.544 282.841,511.48 282.809,511.417C282.769,511.333 282.723,511.25 282.677,511.167C282.645,511.109 282.613,511.051 282.579,510.994C282.53,510.913 282.478,510.836 282.424,510.758C282.383,510.7 282.343,510.643 282.3,510.585C282.248,510.516 282.19,510.447 282.136,510.381C282.084,510.317 282.029,510.257 281.975,510.199C281.923,510.142 281.868,510.087 281.813,510.032C281.744,509.966 281.675,509.9 281.606,509.84C281.554,509.794 281.505,509.75 281.454,509.71C281.37,509.644 281.287,509.581 281.2,509.517C281.174,509.5 281.148,509.477 281.123,509.457C274.2,504.734 267.678,499.259 261.731,493.192C261.723,493.18 261.714,493.174 261.706,493.163C261.599,493.056 261.49,492.956 261.377,492.861C261.36,492.849 261.346,492.835 261.329,492.823C261.216,492.728 261.101,492.642 260.98,492.558C260.96,492.547 260.94,492.532 260.92,492.518C260.805,492.443 260.687,492.371 260.563,492.305C260.54,492.291 260.514,492.276 260.488,492.262C260.37,492.199 260.249,492.141 260.125,492.089C260.097,492.078 260.071,492.063 260.042,492.052C259.915,492.003 259.792,491.957 259.662,491.917C259.636,491.908 259.613,491.899 259.587,491.891C259.452,491.85 259.314,491.816 259.178,491.787C259.161,491.781 259.144,491.778 259.127,491.775C258.977,491.744 258.83,491.724 258.681,491.706C258.672,491.706 258.666,491.704 258.66,491.704C258.027,491.637 257.38,491.689 256.752,491.868C256.749,491.868 256.746,491.87 256.743,491.87C256.594,491.914 256.45,491.963 256.303,492.017C256.292,492.023 256.277,492.029 256.266,492.032C256.127,492.086 255.995,492.15 255.86,492.216C255.843,492.225 255.825,492.233 255.808,492.242C255.742,492.276 255.673,492.308 255.606,492.345L239.623,501.576C237.154,503.001 234.261,503.372 231.481,502.627C228.7,501.881 226.386,500.111 224.961,497.639L207.614,467.598C204.652,462.466 206.417,455.883 211.543,452.924L227.491,443.714C227.523,443.697 227.549,443.676 227.581,443.659C227.667,443.604 227.753,443.55 227.837,443.492C227.894,443.452 227.949,443.412 228.004,443.371C228.079,443.314 228.15,443.256 228.222,443.196C228.283,443.144 228.343,443.092 228.401,443.04C228.458,442.986 228.516,442.931 228.571,442.873C228.634,442.807 228.694,442.744 228.752,442.678C228.798,442.626 228.844,442.571 228.887,442.516C228.948,442.444 229.005,442.37 229.06,442.292C229.1,442.237 229.138,442.183 229.172,442.128C229.224,442.047 229.276,441.97 229.325,441.889C229.359,441.829 229.391,441.765 229.426,441.702C229.466,441.624 229.506,441.546 229.544,441.466C229.575,441.394 229.607,441.322 229.636,441.25C229.664,441.175 229.696,441.103 229.722,441.028C229.751,440.945 229.777,440.861 229.803,440.778C229.823,440.709 229.843,440.64 229.86,440.574C229.88,440.481 229.9,440.389 229.918,440.3C229.932,440.231 229.944,440.165 229.952,440.099C229.967,440.007 229.978,439.914 229.987,439.822C229.993,439.75 230.001,439.681 230.004,439.609C230.007,439.52 230.01,439.434 230.01,439.345C230.01,439.264 230.007,439.183 230.004,439.103C230.001,439.025 229.993,438.95 229.987,438.873C229.978,438.778 229.967,438.685 229.952,438.59C229.944,438.524 229.932,438.458 229.918,438.392C229.898,438.291 229.875,438.19 229.849,438.09C229.84,438.055 229.837,438.021 229.829,437.989C227.569,429.924 226.098,421.531 225.456,413.049C225.456,413.02 225.451,412.994 225.448,412.965C225.436,412.847 225.422,412.732 225.405,412.617C225.396,412.562 225.384,412.507 225.373,412.453C225.353,412.349 225.33,412.248 225.304,412.148C225.287,412.079 225.266,412.012 225.246,411.946C225.22,411.863 225.194,411.782 225.163,411.701C225.134,411.621 225.105,411.54 225.071,411.463C225.042,411.399 225.016,411.333 224.984,411.27C224.941,411.183 224.901,411.097 224.852,411.011C224.823,410.959 224.794,410.907 224.763,410.855C224.711,410.766 224.656,410.68 224.599,410.593C224.564,410.547 224.532,410.498 224.498,410.452C224.435,410.369 224.374,410.288 224.308,410.208C224.271,410.162 224.23,410.118 224.19,410.072C224.124,409.998 224.055,409.926 223.986,409.856C223.94,409.81 223.891,409.764 223.842,409.718C223.773,409.658 223.704,409.595 223.634,409.537C223.577,409.491 223.519,409.448 223.462,409.405C223.39,409.35 223.321,409.298 223.246,409.249C223.185,409.209 223.122,409.169 223.059,409.128C222.981,409.082 222.906,409.036 222.829,408.996C222.762,408.961 222.699,408.927 222.633,408.895C222.549,408.855 222.463,408.815 222.377,408.78C222.313,408.754 222.25,408.728 222.187,408.705C222.092,408.671 221.997,408.636 221.899,408.607C221.838,408.59 221.775,408.573 221.715,408.556C221.611,408.53 221.51,408.507 221.407,408.486C221.372,408.478 221.34,408.469 221.306,408.463L203.132,405.257C200.326,404.762 197.871,403.193 196.219,400.836C194.569,398.479 193.933,395.638 194.428,392.831L200.453,358.655C201.477,352.832 207.056,348.926 212.89,349.951L231.032,353.146C231.115,353.16 231.199,353.166 231.282,353.174C231.325,353.18 231.371,353.189 231.417,353.192C231.564,353.206 231.711,353.215 231.855,353.215C231.869,353.215 231.884,353.218 231.898,353.218L231.91,353.218C233.916,353.218 235.723,352.02 236.518,350.204C239.989,342.562 244.246,335.208 249.171,328.343C249.191,328.315 249.208,328.286 249.225,328.257C249.286,328.171 249.343,328.084 249.395,327.995C249.43,327.938 249.464,327.877 249.496,327.819C249.542,327.736 249.585,327.653 249.625,327.566C249.657,327.497 249.689,327.428 249.72,327.356C249.752,327.281 249.781,327.204 249.81,327.129C249.838,327.045 249.867,326.965 249.893,326.881C249.913,326.812 249.931,326.743 249.951,326.674C249.974,326.585 249.997,326.495 250.014,326.403C250.028,326.337 250.037,326.268 250.049,326.202C250.063,326.11 250.077,326.018 250.086,325.926C250.095,325.856 250.097,325.785 250.103,325.713C250.109,325.626 250.112,325.537 250.112,325.451C250.115,325.373 250.112,325.292 250.109,325.212C250.106,325.134 250.103,325.056 250.095,324.979C250.089,324.889 250.077,324.803 250.066,324.714C250.054,324.645 250.046,324.576 250.034,324.507C250.017,324.414 249.997,324.322 249.974,324.23C249.959,324.167 249.942,324.101 249.925,324.035C249.899,323.945 249.87,323.856 249.841,323.767C249.818,323.701 249.792,323.634 249.769,323.568C249.738,323.485 249.7,323.404 249.666,323.324C249.631,323.252 249.597,323.18 249.562,323.108C249.525,323.039 249.487,322.97 249.45,322.9C249.404,322.82 249.355,322.742 249.303,322.664C249.266,322.604 249.225,322.549 249.185,322.492C249.127,322.408 249.067,322.328 249.001,322.247C248.981,322.221 248.961,322.192 248.938,322.164L237.09,308.028C233.288,303.495 233.878,296.711 238.412,292.912L264.99,270.605C269.529,266.803 276.31,267.393 280.106,271.923L291.948,286.047C291.982,286.084 292.017,286.119 292.051,286.156C292.083,286.191 292.112,286.222 292.144,286.257C292.276,286.398 292.417,286.53 292.561,286.654C292.581,286.671 292.598,286.689 292.616,286.703C292.791,286.847 292.972,286.977 293.162,287.095C293.171,287.097 293.18,287.103 293.188,287.109C293.37,287.218 293.554,287.316 293.744,287.4C293.77,287.411 293.793,287.423 293.819,287.434C294.216,287.604 294.63,287.722 295.051,287.785C295.1,287.794 295.148,287.8 295.197,287.806C295.384,287.829 295.569,287.843 295.756,287.846C295.776,287.846 295.796,287.849 295.819,287.849L295.839,287.849C296.009,287.849 296.182,287.84 296.352,287.82C296.403,287.814 296.455,287.806 296.507,287.797C296.631,287.78 296.752,287.762 296.875,287.734C296.936,287.722 296.996,287.705 297.057,287.688C297.172,287.659 297.284,287.627 297.396,287.59C297.457,287.569 297.517,287.549 297.575,287.526C297.69,287.483 297.799,287.437 297.912,287.388C297.943,287.374 297.975,287.362 298.007,287.348C302.382,285.235 306.9,283.379 311.5,281.787L311.5,287.944C264.595,305.487 233.331,350.348 233.331,400.698C233.331,467.063 287.322,521.048 353.681,521.048C420.043,521.048 474.031,467.06 474.031,400.698C474.031,350.345 442.77,305.49 395.866,287.944L395.866,281.79C400.468,283.384 404.987,285.238 409.356,287.348C409.388,287.362 409.419,287.374 409.448,287.385C409.56,287.437 409.673,287.483 409.785,287.526C409.845,287.549 409.906,287.572 409.969,287.593C410.076,287.627 410.182,287.656 410.289,287.685C410.358,287.702 410.427,287.722 410.496,287.736C410.594,287.757 410.694,287.771 410.792,287.785C410.89,287.8 410.988,287.817 411.086,287.823C411.227,287.837 411.365,287.846 411.506,287.849L411.544,287.849C411.584,287.849 411.621,287.843 411.659,287.843C411.82,287.837 411.978,287.829 412.137,287.808C412.203,287.8 412.269,287.791 412.335,287.782C412.516,287.754 412.698,287.716 412.873,287.667C412.894,287.662 412.914,287.659 412.931,287.653C413.13,287.598 413.322,287.526 413.512,287.446C413.561,287.426 413.61,287.403 413.656,287.38C413.812,287.31 413.964,287.23 414.111,287.144C414.148,287.12 414.186,287.1 414.223,287.077C414.396,286.971 414.563,286.853 414.721,286.72C414.767,286.683 414.81,286.643 414.856,286.605C414.969,286.507 415.078,286.401 415.182,286.292C415.236,286.24 415.285,286.182 415.337,286.127C415.363,286.099 415.389,286.073 415.415,286.044L427.248,271.92C429.078,269.741 431.663,268.403 434.53,268.153C437.396,267.902 440.177,268.774 442.364,270.613L468.942,292.912C471.127,294.742 472.468,297.33 472.719,300.199C472.969,303.069 472.1,305.85 470.269,308.031L458.417,322.164C458.376,322.213 458.342,322.264 458.304,322.316C458.275,322.351 458.247,322.388 458.221,322.426C458.146,322.526 458.077,322.63 458.011,322.734C457.991,322.765 457.973,322.794 457.956,322.826C457.884,322.944 457.821,323.062 457.76,323.183C457.752,323.2 457.743,323.22 457.734,323.24C457.671,323.373 457.613,323.505 457.562,323.643C457.559,323.652 457.556,323.66 457.55,323.672C457.498,323.816 457.452,323.96 457.412,324.109C457.412,324.115 457.409,324.124 457.409,324.13C457.369,324.276 457.337,324.426 457.311,324.576C457.311,324.587 457.308,324.599 457.308,324.607C457.285,324.754 457.268,324.901 457.257,325.045C457.257,325.068 457.254,325.088 457.254,325.108C457.245,325.243 457.242,325.382 457.245,325.517C457.248,325.549 457.248,325.58 457.251,325.615C457.254,325.738 457.262,325.865 457.28,325.989C457.282,326.029 457.291,326.072 457.294,326.116C457.311,326.234 457.331,326.349 457.357,326.464C457.366,326.51 457.377,326.556 457.389,326.602C457.418,326.714 457.447,326.826 457.484,326.939C457.498,326.982 457.513,327.025 457.527,327.068C457.567,327.183 457.611,327.296 457.66,327.408C457.677,327.445 457.691,327.483 457.708,327.52C457.763,327.635 457.824,327.75 457.887,327.866C457.904,327.897 457.921,327.929 457.939,327.958C458.008,328.073 458.08,328.188 458.157,328.297C458.169,328.315 458.178,328.332 458.192,328.346C463.117,335.208 467.382,342.582 470.868,350.262C470.877,350.282 470.891,350.299 470.9,350.319C471.093,350.731 471.334,351.105 471.622,351.442C471.657,351.485 471.694,351.525 471.731,351.565C471.873,351.724 472.022,351.873 472.183,352.012C472.189,352.017 472.195,352.02 472.201,352.026C472.359,352.161 472.529,352.282 472.704,352.397C472.745,352.423 472.785,352.449 472.825,352.472C473.197,352.699 473.597,352.881 474.017,353.007C474.046,353.016 474.074,353.022 474.1,353.03C474.308,353.088 474.518,353.137 474.734,353.166C474.739,353.169 474.748,353.171 474.754,353.171C474.972,353.2 475.191,353.218 475.416,353.218C475.43,353.218 475.447,353.22 475.462,353.22C475.514,353.22 475.568,353.215 475.62,353.212C475.712,353.209 475.804,353.206 475.899,353.197C475.991,353.192 476.086,353.177 476.178,353.163C476.23,353.154 476.282,353.151 476.334,353.143L494.47,349.951C500.299,348.926 505.888,352.832 506.913,358.655L512.94,392.826C513.962,398.654 510.053,404.232 504.233,405.263L486.06,408.461C486.025,408.466 485.993,408.478 485.959,408.484C485.85,408.504 485.743,408.53 485.637,408.558C485.585,408.573 485.533,408.584 485.481,408.602C485.369,408.633 485.259,408.671 485.15,408.714C485.104,408.731 485.058,408.748 485.015,408.766C484.905,408.812 484.799,408.861 484.692,408.912C484.649,408.933 484.609,408.953 484.569,408.976C484.462,409.03 484.361,409.091 484.261,409.154C484.223,409.177 484.186,409.2 484.148,409.226C484.048,409.292 483.953,409.361 483.858,409.433C483.823,409.459 483.792,409.485 483.76,409.511C483.665,409.589 483.573,409.669 483.481,409.756C483.455,409.779 483.429,409.805 483.403,409.831C483.314,409.92 483.225,410.012 483.141,410.107C483.118,410.133 483.098,410.156 483.078,410.182C482.994,410.28 482.917,410.383 482.839,410.487C482.822,410.513 482.801,410.542 482.784,410.567C482.712,410.671 482.646,410.778 482.583,410.887C482.563,410.919 482.542,410.953 482.525,410.988C482.468,411.088 482.416,411.192 482.367,411.299C482.344,411.347 482.324,411.394 482.303,411.44C482.263,411.535 482.226,411.63 482.191,411.727C482.168,411.794 482.145,411.857 482.125,411.926C482.099,412.007 482.076,412.09 482.056,412.174C482.033,412.26 482.013,412.343 481.995,412.43C481.981,412.502 481.97,412.574 481.958,412.646C481.944,412.743 481.932,412.841 481.921,412.939C481.918,412.979 481.909,413.014 481.906,413.054C481.276,421.502 479.805,429.892 477.54,437.995C477.528,438.032 477.525,438.069 477.514,438.107C477.491,438.199 477.471,438.291 477.451,438.383C477.436,438.461 477.425,438.536 477.413,438.611C477.399,438.694 477.39,438.778 477.382,438.864C477.373,438.95 477.367,439.037 477.361,439.123C477.359,439.192 477.359,439.264 477.359,439.336C477.382,439.491 477.382,439.592 477.382,439.684L477.361,439.624Z" />
                </clipPath>
                <g clip-path="url(#_clip1)">
                    <rect x="183.531" y="190.217" width="341.322" height="378.823"
                        style="fill:url(#_Linear2);fill-rule:nonzero;" />
                </g>
            </g>
        </g>
        <g>
            <g>
                <clipPath id="_clip3">
                    <path
                        d="M332.817,449.778C333.441,450.032 334.086,450.153 334.716,450.153C336.708,450.153 338.593,448.967 339.388,447.009L377.309,353.894C378.36,351.315 377.119,348.373 374.54,347.323C371.964,346.272 369.02,347.513 367.969,350.092L330.051,443.207C329.003,445.789 330.243,448.731 332.819,449.775L332.817,449.778Z" />
                </clipPath>
                <g clip-path="url(#_clip3)">
                    <rect x="329.003" y="346.272" width="49.357" height="103.88"
                        style="fill:url(#_Linear4);fill-rule:nonzero;" />
                </g>
            </g>
        </g>
        <g>
            <g>
                <clipPath id="_clip5">
                    <path
                        d="M264.463,398.551C264.463,399.889 264.995,401.17 265.94,402.117L311.995,448.172C312.982,449.157 314.272,449.649 315.561,449.649C316.851,449.649 318.143,449.157 319.127,448.172C321.096,446.204 321.096,443.012 319.127,441.04L276.635,398.553L319.127,356.061C321.096,354.093 321.096,350.9 319.127,348.932C317.156,346.963 313.964,346.963 311.995,348.932L265.94,394.987C264.993,395.926 264.457,397.212 264.457,398.548L264.463,398.551Z" />
                </clipPath>
                <g clip-path="url(#_clip5)">
                    <rect x="264.457" y="346.963" width="56.639" height="102.686"
                        style="fill:url(#_Linear6);fill-rule:nonzero;" />
                </g>
            </g>
        </g>
        <g>
            <g>
                <clipPath id="_clip7">
                    <path
                        d="M388.241,448.172C389.228,449.16 390.518,449.649 391.807,449.649C393.097,449.649 394.389,449.157 395.373,448.175L441.429,402.12C442.376,401.173 442.905,399.892 442.905,398.553C442.905,397.218 442.376,395.934 441.429,394.987L395.373,348.932C393.405,346.963 390.213,346.963 388.244,348.932C386.275,350.9 386.275,354.093 388.244,356.061L430.733,398.553L388.244,441.043C386.266,443.012 386.266,446.206 388.235,448.178L388.241,448.172Z" />
                </clipPath>
                <g clip-path="url(#_clip7)">
                    <rect x="386.266" y="346.963" width="56.639" height="102.686"
                        style="fill:url(#_Linear8);fill-rule:nonzero;" />
                </g>
            </g>
        </g>
    </g>
    <defs>
        <linearGradient id="_Linear2" x1="0" y1="0" x2="1" y2="0" gradientUnits="userSpaceOnUse"
            gradientTransform="matrix(384.549,328.168,-328.168,384.549,157.164,230.664)">
            <stop offset="0" style="stop-color:rgb(95,147,234);stop-opacity:1" />
            <stop offset="0.21" style="stop-color:rgb(96,147,233);stop-opacity:1" />
            <stop offset="0.22" style="stop-color:rgb(100,144,232);stop-opacity:1" />
            <stop offset="0.23" style="stop-color:rgb(103,142,232);stop-opacity:1" />
            <stop offset="0.23" style="stop-color:rgb(104,142,231);stop-opacity:1" />
            <stop offset="0.25" style="stop-color:rgb(107,139,230);stop-opacity:1" />
            <stop offset="0.26" style="stop-color:rgb(110,137,230);stop-opacity:1" />
            <stop offset="0.26" style="stop-color:rgb(111,136,229);stop-opacity:1" />
            <stop offset="0.27" style="stop-color:rgb(113,135,229);stop-opacity:1" />
            <stop offset="0.27" style="stop-color:rgb(114,134,228);stop-opacity:1" />
            <stop offset="0.28" style="stop-color:rgb(115,133,228);stop-opacity:1" />
            <stop offset="0.29" style="stop-color:rgb(117,132,227);stop-opacity:1" />
            <stop offset="0.3" style="stop-color:rgb(123,128,226);stop-opacity:1" />
            <stop offset="0.31" style="stop-color:rgb(125,127,225);stop-opacity:1" />
            <stop offset="0.33" style="stop-color:rgb(129,124,224);stop-opacity:1" />
            <stop offset="0.34" style="stop-color:rgb(131,122,224);stop-opacity:1" />
            <stop offset="0.34" style="stop-color:rgb(132,122,223);stop-opacity:1" />
            <stop offset="0.35" style="stop-color:rgb(135,119,223);stop-opacity:1" />
            <stop offset="0.36" style="stop-color:rgb(136,119,222);stop-opacity:1" />
            <stop offset="0.36" style="stop-color:rgb(138,117,222);stop-opacity:1" />
            <stop offset="0.37" style="stop-color:rgb(139,117,221);stop-opacity:1" />
            <stop offset="0.38" style="stop-color:rgb(141,115,221);stop-opacity:1" />
            <stop offset="0.38" style="stop-color:rgb(143,114,220);stop-opacity:1" />
            <stop offset="0.38" style="stop-color:rgb(144,114,220);stop-opacity:1" />
            <stop offset="0.41" style="stop-color:rgb(150,109,218);stop-opacity:1" />
            <stop offset="0.41" style="stop-color:rgb(151,108,218);stop-opacity:1" />
            <stop offset="0.41" style="stop-color:rgb(152,108,218);stop-opacity:1" />
            <stop offset="0.42" style="stop-color:rgb(154,106,217);stop-opacity:1" />
            <stop offset="0.43" style="stop-color:rgb(155,106,217);stop-opacity:1" />
            <stop offset="0.43" style="stop-color:rgb(157,104,216);stop-opacity:1" />
            <stop offset="0.44" style="stop-color:rgb(158,103,216);stop-opacity:1" />
            <stop offset="0.45" style="stop-color:rgb(160,102,216);stop-opacity:1" />
            <stop offset="0.45" style="stop-color:rgb(161,101,215);stop-opacity:1" />
            <stop offset="0.45" style="stop-color:rgb(162,100,215);stop-opacity:1" />
            <stop offset="0.46" style="stop-color:rgb(164,100,215);stop-opacity:1" />
            <stop offset="0.46" style="stop-color:rgb(165,99,214);stop-opacity:1" />
            <stop offset="0.47" style="stop-color:rgb(167,97,214);stop-opacity:1" />
            <stop offset="0.47" style="stop-color:rgb(168,97,213);stop-opacity:1" />
            <stop offset="0.48" style="stop-color:rgb(171,94,213);stop-opacity:1" />
            <stop offset="0.49" style="stop-color:rgb(172,94,212);stop-opacity:1" />
            <stop offset="0.5" style="stop-color:rgb(174,92,212);stop-opacity:1" />
            <stop offset="0.5" style="stop-color:rgb(175,92,211);stop-opacity:1" />
            <stop offset="0.51" style="stop-color:rgb(178,89,211);stop-opacity:1" />
            <stop offset="0.52" style="stop-color:rgb(179,89,210);stop-opacity:1" />
            <stop offset="0.53" style="stop-color:rgb(182,86,209);stop-opacity:1" />
            <stop offset="0.53" style="stop-color:rgb(183,86,209);stop-opacity:1" />
            <stop offset="0.54" style="stop-color:rgb(187,83,208);stop-opacity:1" />
            <stop offset="0.55" style="stop-color:rgb(189,82,208);stop-opacity:1" />
            <stop offset="0.55" style="stop-color:rgb(190,81,207);stop-opacity:1" />
            <stop offset="0.59" style="stop-color:rgb(198,75,205);stop-opacity:1" />
            <stop offset="0.59" style="stop-color:rgb(200,74,204);stop-opacity:1" />
            <stop offset="0.61" style="stop-color:rgb(204,71,203);stop-opacity:1" />
            <stop offset="0.61" style="stop-color:rgb(205,70,203);stop-opacity:1" />
            <stop offset="0.62" style="stop-color:rgb(207,69,203);stop-opacity:1" />
            <stop offset="0.62" style="stop-color:rgb(208,69,202);stop-opacity:1" />
            <stop offset="0.63" style="stop-color:rgb(210,67,202);stop-opacity:1" />
            <stop offset="0.63" style="stop-color:rgb(211,67,202);stop-opacity:1" />
            <stop offset="0.64" style="stop-color:rgb(212,66,201);stop-opacity:1" />
            <stop offset="0.64" style="stop-color:rgb(214,64,201);stop-opacity:1" />
            <stop offset="0.65" style="stop-color:rgb(215,64,200);stop-opacity:1" />
            <stop offset="0.66" style="stop-color:rgb(218,61,199);stop-opacity:1" />
            <stop offset="0.66" style="stop-color:rgb(219,61,199);stop-opacity:1" />
            <stop offset="0.69" style="stop-color:rgb(225,56,197);stop-opacity:1" />
            <stop offset="0.69" style="stop-color:rgb(226,56,197);stop-opacity:1" />
            <stop offset="0.7" style="stop-color:rgb(230,53,196);stop-opacity:1" />
            <stop offset="0.71" style="stop-color:rgb(231,53,196);stop-opacity:1" />
            <stop offset="0.71" style="stop-color:rgb(233,51,195);stop-opacity:1" />
            <stop offset="0.72" style="stop-color:rgb(234,50,195);stop-opacity:1" />
            <stop offset="0.73" style="stop-color:rgb(236,49,195);stop-opacity:1" />
            <stop offset="0.73" style="stop-color:rgb(237,48,194);stop-opacity:1" />
            <stop offset="0.73" style="stop-color:rgb(238,47,194);stop-opacity:1" />
            <stop offset="1" style="stop-color:rgb(239,46,194);stop-opacity:1" />
        </linearGradient>
        <linearGradient id="_Linear4" x1="0" y1="0" x2="1" y2="0" gradientUnits="userSpaceOnUse"
            gradientTransform="matrix(79.8526,68.1447,-68.1447,79.8526,313.588,373.884)">
            <stop offset="0" style="stop-color:rgb(153,107,217);stop-opacity:1" />
            <stop offset="0.02" style="stop-color:rgb(154,106,217);stop-opacity:1" />
            <stop offset="0.05" style="stop-color:rgb(156,105,217);stop-opacity:1" />
            <stop offset="0.06" style="stop-color:rgb(156,105,217);stop-opacity:1" />
            <stop offset="0.08" style="stop-color:rgb(157,104,216);stop-opacity:1" />
            <stop offset="0.09" style="stop-color:rgb(158,103,216);stop-opacity:1" />
            <stop offset="0.13" style="stop-color:rgb(160,102,216);stop-opacity:1" />
            <stop offset="0.14" style="stop-color:rgb(161,102,215);stop-opacity:1" />
            <stop offset="0.17" style="stop-color:rgb(163,100,215);stop-opacity:1" />
            <stop offset="0.19" style="stop-color:rgb(163,100,215);stop-opacity:1" />
            <stop offset="0.2" style="stop-color:rgb(164,99,214);stop-opacity:1" />
            <stop offset="0.22" style="stop-color:rgb(165,98,214);stop-opacity:1" />
            <stop offset="0.25" style="stop-color:rgb(167,97,214);stop-opacity:1" />
            <stop offset="0.27" style="stop-color:rgb(168,97,213);stop-opacity:1" />
            <stop offset="0.3" style="stop-color:rgb(170,95,213);stop-opacity:1" />
            <stop offset="0.31" style="stop-color:rgb(170,95,213);stop-opacity:1" />
            <stop offset="0.33" style="stop-color:rgb(171,94,213);stop-opacity:1" />
            <stop offset="0.34" style="stop-color:rgb(172,94,212);stop-opacity:1" />
            <stop offset="0.36" style="stop-color:rgb(173,93,212);stop-opacity:1" />
            <stop offset="0.36" style="stop-color:rgb(173,93,212);stop-opacity:1" />
            <stop offset="0.38" style="stop-color:rgb(174,92,212);stop-opacity:1" />
            <stop offset="0.41" style="stop-color:rgb(176,91,211);stop-opacity:1" />
            <stop offset="0.42" style="stop-color:rgb(176,91,211);stop-opacity:1" />
            <stop offset="0.45" style="stop-color:rgb(178,89,211);stop-opacity:1" />
            <stop offset="0.47" style="stop-color:rgb(179,89,210);stop-opacity:1" />
            <stop offset="0.48" style="stop-color:rgb(180,88,210);stop-opacity:1" />
            <stop offset="0.53" style="stop-color:rgb(183,86,209);stop-opacity:1" />
            <stop offset="0.55" style="stop-color:rgb(183,86,209);stop-opacity:1" />
            <stop offset="0.58" style="stop-color:rgb(185,84,209);stop-opacity:1" />
            <stop offset="0.59" style="stop-color:rgb(186,84,208);stop-opacity:1" />
            <stop offset="0.61" style="stop-color:rgb(187,83,208);stop-opacity:1" />
            <stop offset="0.67" style="stop-color:rgb(190,81,207);stop-opacity:1" />
            <stop offset="0.69" style="stop-color:rgb(191,80,207);stop-opacity:1" />
            <stop offset="0.72" style="stop-color:rgb(193,79,206);stop-opacity:1" />
            <stop offset="0.73" style="stop-color:rgb(194,78,206);stop-opacity:1" />
            <stop offset="0.77" style="stop-color:rgb(196,77,206);stop-opacity:1" />
            <stop offset="0.78" style="stop-color:rgb(197,77,205);stop-opacity:1" />
            <stop offset="0.8" style="stop-color:rgb(197,76,205);stop-opacity:1" />
            <stop offset="0.81" style="stop-color:rgb(198,75,205);stop-opacity:1" />
            <stop offset="0.86" style="stop-color:rgb(201,73,204);stop-opacity:1" />
            <stop offset="0.89" style="stop-color:rgb(203,72,204);stop-opacity:1" />
            <stop offset="0.91" style="stop-color:rgb(203,72,204);stop-opacity:1" />
            <stop offset="0.92" style="stop-color:rgb(204,71,203);stop-opacity:1" />
            <stop offset="0.94" style="stop-color:rgb(205,70,203);stop-opacity:1" />
            <stop offset="0.97" style="stop-color:rgb(207,69,203);stop-opacity:1" />
            <stop offset="0.98" style="stop-color:rgb(208,69,202);stop-opacity:1" />
            <stop offset="1" style="stop-color:rgb(209,68,202);stop-opacity:1" />
        </linearGradient>
        <linearGradient id="_Linear6" x1="0" y1="0" x2="1" y2="0" gradientUnits="userSpaceOnUse"
            gradientTransform="matrix(83.4753,71.237,-71.237,83.4753,260.518,361.128)">
            <stop offset="0" style="stop-color:rgb(128,125,225);stop-opacity:1" />
            <stop offset="0.02" style="stop-color:rgb(128,125,225);stop-opacity:1" />
            <stop offset="0.03" style="stop-color:rgb(129,124,224);stop-opacity:1" />
            <stop offset="0.05" style="stop-color:rgb(130,123,224);stop-opacity:1" />
            <stop offset="0.09" style="stop-color:rgb(133,121,223);stop-opacity:1" />
            <stop offset="0.11" style="stop-color:rgb(133,121,223);stop-opacity:1" />
            <stop offset="0.14" style="stop-color:rgb(135,119,222);stop-opacity:1" />
            <stop offset="0.2" style="stop-color:rgb(139,117,221);stop-opacity:1" />
            <stop offset="0.22" style="stop-color:rgb(140,116,221);stop-opacity:1" />
            <stop offset="0.27" style="stop-color:rgb(143,114,220);stop-opacity:1" />
            <stop offset="0.28" style="stop-color:rgb(143,114,220);stop-opacity:1" />
            <stop offset="0.31" style="stop-color:rgb(145,112,220);stop-opacity:1" />
            <stop offset="0.33" style="stop-color:rgb(146,112,219);stop-opacity:1" />
            <stop offset="0.36" style="stop-color:rgb(148,110,219);stop-opacity:1" />
            <stop offset="0.39" style="stop-color:rgb(150,109,218);stop-opacity:1" />
            <stop offset="0.39" style="stop-color:rgb(151,109,218);stop-opacity:1" />
            <stop offset="0.41" style="stop-color:rgb(151,108,218);stop-opacity:1" />
            <stop offset="0.44" style="stop-color:rgb(153,107,218);stop-opacity:1" />
            <stop offset="0.45" style="stop-color:rgb(153,107,217);stop-opacity:1" />
            <stop offset="0.48" style="stop-color:rgb(155,105,217);stop-opacity:1" />
            <stop offset="0.52" style="stop-color:rgb(157,104,216);stop-opacity:1" />
            <stop offset="0.53" style="stop-color:rgb(158,103,216);stop-opacity:1" />
            <stop offset="0.56" style="stop-color:rgb(160,102,216);stop-opacity:1" />
            <stop offset="0.58" style="stop-color:rgb(161,102,215);stop-opacity:1" />
            <stop offset="0.61" style="stop-color:rgb(163,100,215);stop-opacity:1" />
            <stop offset="0.61" style="stop-color:rgb(163,100,215);stop-opacity:1" />
            <stop offset="0.64" style="stop-color:rgb(164,99,214);stop-opacity:1" />
            <stop offset="0.66" style="stop-color:rgb(165,98,214);stop-opacity:1" />
            <stop offset="0.7" style="stop-color:rgb(168,96,213);stop-opacity:1" />
            <stop offset="0.83" style="stop-color:rgb(175,91,211);stop-opacity:1" />
            <stop offset="0.88" style="stop-color:rgb(178,89,211);stop-opacity:1" />
            <stop offset="0.89" style="stop-color:rgb(179,89,210);stop-opacity:1" />
            <stop offset="0.91" style="stop-color:rgb(180,88,210);stop-opacity:1" />
            <stop offset="0.95" style="stop-color:rgb(183,86,209);stop-opacity:1" />
            <stop offset="1" style="stop-color:rgb(185,84,209);stop-opacity:1" />
        </linearGradient>
        <linearGradient id="_Linear8" x1="0" y1="0" x2="1" y2="0" gradientUnits="userSpaceOnUse"
            gradientTransform="matrix(83.478,71.2388,-71.2388,83.478,363.128,383.624)">
            <stop offset="0" style="stop-color:rgb(177,90,211);stop-opacity:1" />
            <stop offset="0.02" style="stop-color:rgb(177,90,211);stop-opacity:1" />
            <stop offset="0.03" style="stop-color:rgb(178,89,211);stop-opacity:1" />
            <stop offset="0.05" style="stop-color:rgb(179,89,210);stop-opacity:1" />
            <stop offset="0.08" style="stop-color:rgb(181,87,210);stop-opacity:1" />
            <stop offset="0.11" style="stop-color:rgb(183,86,209);stop-opacity:1" />
            <stop offset="0.16" style="stop-color:rgb(185,84,209);stop-opacity:1" />
            <stop offset="0.17" style="stop-color:rgb(186,84,208);stop-opacity:1" />
            <stop offset="0.2" style="stop-color:rgb(188,82,208);stop-opacity:1" />
            <stop offset="0.23" style="stop-color:rgb(190,81,207);stop-opacity:1" />
            <stop offset="0.25" style="stop-color:rgb(191,80,207);stop-opacity:1" />
            <stop offset="0.28" style="stop-color:rgb(193,79,207);stop-opacity:1" />
            <stop offset="0.3" style="stop-color:rgb(194,79,206);stop-opacity:1" />
            <stop offset="0.33" style="stop-color:rgb(195,77,206);stop-opacity:1" />
            <stop offset="0.36" style="stop-color:rgb(197,76,205);stop-opacity:1" />
            <stop offset="0.38" style="stop-color:rgb(198,75,205);stop-opacity:1" />
            <stop offset="0.39" style="stop-color:rgb(199,75,205);stop-opacity:1" />
            <stop offset="0.39" style="stop-color:rgb(200,74,205);stop-opacity:1" />
            <stop offset="0.41" style="stop-color:rgb(200,74,204);stop-opacity:1" />
            <stop offset="0.42" style="stop-color:rgb(201,73,204);stop-opacity:1" />
            <stop offset="0.48" style="stop-color:rgb(205,71,203);stop-opacity:1" />
            <stop offset="0.5" style="stop-color:rgb(205,70,203);stop-opacity:1" />
            <stop offset="0.53" style="stop-color:rgb(207,69,202);stop-opacity:1" />
            <stop offset="0.55" style="stop-color:rgb(208,68,202);stop-opacity:1" />
            <stop offset="0.59" style="stop-color:rgb(211,66,201);stop-opacity:1" />
            <stop offset="0.61" style="stop-color:rgb(212,66,201);stop-opacity:1" />
            <stop offset="0.61" style="stop-color:rgb(212,65,201);stop-opacity:1" />
            <stop offset="0.66" style="stop-color:rgb(215,64,200);stop-opacity:1" />
            <stop offset="0.67" style="stop-color:rgb(215,63,200);stop-opacity:1" />
            <stop offset="0.72" style="stop-color:rgb(218,61,199);stop-opacity:1" />
            <stop offset="0.77" style="stop-color:rgb(221,59,199);stop-opacity:1" />
            <stop offset="0.78" style="stop-color:rgb(222,59,198);stop-opacity:1" />
            <stop offset="0.81" style="stop-color:rgb(224,57,198);stop-opacity:1" />
            <stop offset="0.84" style="stop-color:rgb(225,56,197);stop-opacity:1" />
            <stop offset="0.89" style="stop-color:rgb(228,54,197);stop-opacity:1" />
            <stop offset="0.91" style="stop-color:rgb(229,54,196);stop-opacity:1" />
            <stop offset="0.94" style="stop-color:rgb(231,52,196);stop-opacity:1" />
            <stop offset="0.97" style="stop-color:rgb(233,51,195);stop-opacity:1" />
            <stop offset="0.98" style="stop-color:rgb(234,50,195);stop-opacity:1" />
            <stop offset="1" style="stop-color:rgb(235,50,195);stop-opacity:1" />
        </linearGradient>
    </defs>
</svg>
