<?xml version="1.0" encoding="UTF-8" standalone="no"?>
<!DOCTYPE svg PUBLIC "-//W3C//DTD SVG 1.1//EN" "http://www.w3.org/Graphics/SVG/1.1/DTD/svg11.dtd">
<svg width="100%" height="100%" viewBox="0 0 359 134" version="1.1" xmlns="http://www.w3.org/2000/svg" xmlns:xlink="http://www.w3.org/1999/xlink" xml:space="preserve" xmlns:serif="http://www.serif.com/" style="fill-rule:evenodd;clip-rule:evenodd;stroke-linejoin:round;stroke-miterlimit:2;">
    <g id="surface1" transform="matrix(1,0,0,1,-163,-219)">
        <g>
            <g>
                <clipPath id="_clip1">
                    <path d="M409.497,297.691C413.332,297.011 415.904,293.339 415.233,289.501L413.186,277.9C412.509,274.065 408.834,271.493 404.996,272.167L400.122,273.023C399.156,271.044 398.047,269.126 396.812,267.301L399.996,263.505C401.206,262.065 401.778,260.231 401.613,258.348C401.45,256.461 400.563,254.757 399.122,253.549L390.099,245.977C388.658,244.767 386.825,244.192 384.941,244.354C383.054,244.52 381.35,245.404 380.143,246.845L376.965,250.638C375.384,249.93 373.761,249.313 372.11,248.788L372.11,231.546C373.736,230.591 374.792,228.82 374.792,226.874L374.792,226.717C374.792,223.732 372.366,221.307 369.381,221.307L346.196,221.307C343.212,221.307 340.783,223.732 340.783,226.717L340.783,226.874C340.783,228.82 341.841,230.594 343.464,231.549L343.464,248.785C341.816,249.31 340.191,249.93 338.61,250.635L335.429,246.845C332.927,243.86 328.46,243.47 325.473,245.972L316.449,253.547C313.465,256.051 313.075,260.518 315.576,263.502L318.76,267.301C317.525,269.132 316.416,271.046 315.45,273.023L310.579,272.164C306.738,271.49 303.065,274.062 302.389,277.897L300.345,289.501C300.016,291.354 300.435,293.227 301.518,294.776C302.605,296.326 304.225,297.359 306.078,297.688L310.958,298.547C311.185,300.751 311.567,302.932 312.098,305.061L307.816,307.534C304.441,309.483 303.279,313.815 305.227,317.192L311.115,327.392C312.055,329.024 313.58,330.192 315.408,330.683C316.023,330.846 316.643,330.927 317.261,330.927C318.482,330.927 319.687,330.607 320.77,329.984L325.069,327.502C326.661,329.041 328.354,330.461 330.128,331.75L328.435,336.408C327.789,338.177 327.876,340.094 328.674,341.81C329.474,343.525 330.886,344.825 332.655,345.468L343.728,349.5C344.52,349.789 345.334,349.924 346.134,349.924C349.023,349.924 351.744,348.141 352.786,345.274L354.481,340.614C355.585,340.689 356.691,340.731 357.786,340.731C358.886,340.731 359.993,340.689 361.093,340.614L362.789,345.271C363.831,348.141 366.551,349.924 369.44,349.924C370.24,349.924 371.055,349.789 371.849,349.5L382.92,345.468C386.578,344.137 388.473,340.072 387.14,336.408L385.447,331.75C387.224,330.458 388.917,329.038 390.506,327.502L394.799,329.978C395.885,330.607 397.09,330.927 398.314,330.927C398.932,330.927 399.555,330.846 400.167,330.68C401.995,330.189 403.516,329.021 404.454,327.392L410.344,317.192C412.296,313.818 411.133,309.483 407.759,307.534L403.474,305.061C404.005,302.927 404.387,300.745 404.614,298.547L409.502,297.688L409.497,297.691ZM344.208,226.717C344.208,225.622 345.101,224.732 346.196,224.732L369.381,224.732C370.479,224.732 371.369,225.622 371.369,226.717L371.369,226.877C371.369,227.761 370.78,228.547 369.923,228.792C369.755,228.839 369.572,228.865 369.381,228.865L346.196,228.865C346.008,228.865 345.825,228.839 345.649,228.789C344.801,228.547 344.208,227.761 344.208,226.877L344.208,226.717ZM345.727,257.312C346.423,257.076 346.89,256.424 346.89,255.692L346.89,232.29L368.688,232.29L368.688,255.692C368.688,256.424 369.154,257.076 369.847,257.312C385.028,262.478 395.225,276.726 395.225,292.769C395.225,313.413 378.43,330.208 357.789,330.208C337.144,330.208 320.349,313.413 320.349,292.769C320.349,276.729 330.546,262.478 345.727,257.312ZM399.779,305.984C399.779,306.007 399.782,306.026 399.785,306.049C399.788,306.083 399.791,306.119 399.796,306.153C399.799,306.172 399.805,306.189 399.807,306.209C399.813,306.245 399.822,306.279 399.83,306.313C399.836,306.333 399.841,306.352 399.847,306.372C399.855,306.406 399.866,306.436 399.878,306.467C399.883,306.49 399.895,306.512 399.903,306.532C399.914,306.56 399.925,306.588 399.937,306.616C399.948,306.641 399.962,306.664 399.973,306.686C399.987,306.712 399.998,306.737 400.012,306.759C400.026,306.785 400.043,306.807 400.057,306.832C400.074,306.855 400.088,306.874 400.102,306.897C400.119,306.919 400.136,306.942 400.156,306.964C400.172,306.987 400.189,307.006 400.206,307.029C400.226,307.048 400.243,307.068 400.262,307.085C400.282,307.107 400.304,307.13 400.327,307.15C400.344,307.166 400.363,307.18 400.38,307.197C400.406,307.22 400.434,307.239 400.462,307.262C400.479,307.273 400.495,307.284 400.512,307.298C400.543,307.318 400.574,307.34 400.608,307.36C400.616,307.363 400.625,307.371 400.633,307.374L406.049,310.502C407.79,311.507 408.388,313.742 407.382,315.483L401.489,325.685C401.006,326.522 400.223,327.123 399.28,327.376C398.336,327.631 397.354,327.502 396.511,327.016L391.087,323.886C391.073,323.88 391.062,323.875 391.051,323.869C391.022,323.852 390.994,323.838 390.966,323.824C390.944,323.813 390.919,323.802 390.893,323.79C390.868,323.782 390.843,323.771 390.818,323.762C390.787,323.751 390.759,323.74 390.728,323.731C390.708,323.726 390.686,323.72 390.663,323.714C390.629,323.706 390.596,323.698 390.562,323.689C390.542,323.686 390.526,323.684 390.509,323.681C390.469,323.675 390.433,323.67 390.396,323.667C390.38,323.664 390.363,323.664 390.346,323.661C390.307,323.658 390.27,323.658 390.234,323.658L390.177,323.658C390.144,323.661 390.107,323.661 390.071,323.664C390.051,323.667 390.029,323.67 390.009,323.672C389.975,323.678 389.944,323.681 389.913,323.686C389.888,323.692 389.863,323.698 389.84,323.703C389.812,323.709 389.784,323.717 389.756,323.726C389.731,323.731 389.703,323.743 389.678,323.751C389.652,323.759 389.627,323.768 389.602,323.779C389.577,323.787 389.548,323.799 389.523,323.813C389.498,323.821 389.475,323.835 389.45,323.846C389.425,323.858 389.402,323.872 389.377,323.886C389.352,323.9 389.327,323.917 389.301,323.931C389.282,323.945 389.262,323.959 389.242,323.973C389.214,323.992 389.186,324.012 389.161,324.035C389.144,324.046 389.127,324.06 389.11,324.074C389.085,324.099 389.057,324.124 389.032,324.15C389.023,324.158 389.015,324.164 389.007,324.172C386.996,326.227 384.781,328.086 382.426,329.695C382.414,329.703 382.406,329.712 382.395,329.72C382.367,329.737 382.341,329.759 382.316,329.779C382.296,329.793 382.277,329.81 382.257,329.827C382.235,329.846 382.215,329.866 382.193,329.888C382.173,329.908 382.153,329.928 382.134,329.947C382.117,329.967 382.1,329.987 382.083,330.006C382.063,330.032 382.044,330.054 382.024,330.079C382.01,330.099 381.999,330.116 381.985,330.135C381.965,330.164 381.948,330.189 381.931,330.217C381.92,330.237 381.909,330.256 381.898,330.276C381.881,330.304 381.867,330.332 381.853,330.363C381.842,330.383 381.833,330.402 381.825,330.425C381.811,330.453 381.799,330.481 381.788,330.512C381.78,330.534 381.771,330.559 381.763,330.585C381.755,330.61 381.746,330.635 381.74,330.663C381.732,330.691 381.726,330.719 381.721,330.748C381.715,330.773 381.71,330.795 381.704,330.821C381.698,330.851 381.696,330.882 381.693,330.913C381.69,330.936 381.687,330.961 381.684,330.983C381.682,331.014 381.682,331.045 381.682,331.079C381.682,331.101 381.679,331.127 381.682,331.149C381.682,331.18 381.682,331.211 381.684,331.239C381.687,331.267 381.69,331.295 381.693,331.32C381.696,331.348 381.701,331.374 381.704,331.399C381.71,331.43 381.718,331.461 381.724,331.492C381.729,331.517 381.735,331.539 381.74,331.562C381.749,331.595 381.76,331.626 381.771,331.66C381.774,331.671 381.777,331.682 381.783,331.694L383.925,337.578C384.61,339.471 383.636,341.568 381.749,342.253L370.678,346.285C368.789,346.97 366.694,345.993 366.007,344.103L363.864,338.216C363.853,338.191 363.842,338.165 363.831,338.14C363.831,338.137 363.831,338.134 363.828,338.132C363.805,338.081 363.783,338.033 363.758,337.986C363.595,337.685 363.353,337.452 363.067,337.298L363.064,337.295C363.019,337.272 362.972,337.25 362.924,337.228L362.907,337.222C362.862,337.202 362.817,337.185 362.772,337.171C362.764,337.169 362.753,337.166 362.744,337.163C362.702,337.152 362.657,337.141 362.615,337.129C362.604,337.126 362.59,337.126 362.578,337.124C362.536,337.115 362.494,337.107 362.449,337.104C362.438,337.101 362.424,337.101 362.41,337.098C362.368,337.096 362.323,337.093 362.281,337.093L362.239,337.093C362.197,337.093 362.155,337.093 362.112,337.098L362.084,337.098C359.249,337.379 356.348,337.379 353.487,337.098L353.459,337.098C353.42,337.096 353.384,337.093 353.344,337.093L353.282,337.093C353.249,337.093 353.215,337.096 353.181,337.098C353.156,337.098 353.134,337.101 353.108,337.104C353.08,337.11 353.049,337.112 353.021,337.118C352.993,337.124 352.965,337.129 352.94,337.135C352.915,337.141 352.889,337.149 352.864,337.155C352.833,337.163 352.808,337.171 352.78,337.18C352.755,337.188 352.729,337.197 352.707,337.208C352.679,337.216 352.654,337.228 352.625,337.239C352.6,337.25 352.578,337.264 352.552,337.275C352.527,337.286 352.505,337.298 352.482,337.312C352.454,337.326 352.429,337.343 352.404,337.359C352.384,337.371 352.364,337.385 352.348,337.396C352.319,337.416 352.291,337.438 352.263,337.458C352.249,337.469 352.232,337.483 352.218,337.494C352.19,337.517 352.162,337.542 352.137,337.567C352.123,337.581 352.112,337.593 352.098,337.607C352.072,337.632 352.047,337.66 352.025,337.688C352.011,337.702 351.999,337.716 351.988,337.73C351.966,337.758 351.946,337.786 351.926,337.814C351.912,337.831 351.898,337.851 351.887,337.87C351.87,337.896 351.853,337.921 351.839,337.949C351.825,337.972 351.811,337.997 351.8,338.019C351.786,338.045 351.775,338.07 351.764,338.095C351.752,338.123 351.738,338.151 351.727,338.179C351.724,338.193 351.716,338.205 351.713,338.216L349.568,344.103C348.883,345.993 346.786,346.97 344.896,346.285L333.826,342.253C332.919,341.922 332.192,341.254 331.779,340.366C331.366,339.479 331.321,338.491 331.653,337.581L333.795,331.694C333.798,331.682 333.8,331.671 333.803,331.66C333.817,331.626 333.826,331.593 333.837,331.559C333.843,331.536 333.848,331.517 333.854,331.494C333.859,331.461 333.868,331.43 333.871,331.399C333.876,331.374 333.879,331.348 333.885,331.32C333.887,331.295 333.89,331.267 333.89,331.239C333.893,331.208 333.896,331.18 333.896,331.149L333.896,331.076C333.896,331.045 333.893,331.014 333.893,330.983C333.89,330.958 333.887,330.936 333.885,330.913C333.882,330.882 333.876,330.851 333.873,330.821C333.868,330.795 333.862,330.773 333.857,330.748C333.851,330.719 333.845,330.691 333.837,330.663C333.831,330.635 333.823,330.61 333.814,330.585C333.806,330.559 333.798,330.534 333.789,330.509C333.778,330.481 333.767,330.453 333.753,330.425C333.744,330.405 333.736,330.383 333.725,330.36C333.711,330.332 333.697,330.304 333.68,330.276C333.668,330.256 333.657,330.237 333.646,330.217C333.629,330.189 333.612,330.164 333.593,330.135C333.579,330.116 333.567,330.099 333.551,330.079C333.534,330.054 333.514,330.032 333.494,330.009C333.478,329.987 333.461,329.967 333.441,329.947C333.424,329.928 333.405,329.908 333.385,329.891C333.362,329.869 333.34,329.846 333.315,329.824C333.298,329.81 333.281,329.796 333.264,329.782C333.236,329.759 333.208,329.737 333.177,329.717C333.169,329.709 333.16,329.703 333.152,329.695C330.802,328.092 328.587,326.233 326.568,324.172C326.565,324.169 326.562,324.167 326.56,324.164C326.523,324.127 326.487,324.094 326.447,324.06C326.442,324.057 326.436,324.051 326.43,324.049C326.394,324.015 326.355,323.987 326.313,323.959C326.307,323.953 326.298,323.948 326.293,323.945C326.254,323.919 326.211,323.894 326.172,323.872C326.164,323.866 326.155,323.86 326.144,323.858C326.105,323.835 326.065,323.816 326.023,323.799C326.012,323.793 326.004,323.79 325.995,323.785C325.953,323.768 325.908,323.754 325.866,323.74C325.858,323.737 325.849,323.734 325.841,323.731C325.793,323.717 325.748,323.706 325.7,323.695C325.695,323.695 325.689,323.692 325.684,323.692C325.633,323.681 325.583,323.675 325.532,323.67C325.529,323.667 325.526,323.667 325.524,323.667C325.31,323.644 325.091,323.661 324.878,323.723L324.875,323.723C324.824,323.74 324.774,323.754 324.726,323.773C324.721,323.776 324.715,323.779 324.712,323.779C324.664,323.799 324.62,323.818 324.575,323.841C324.569,323.844 324.563,323.846 324.558,323.849C324.535,323.863 324.51,323.872 324.488,323.886L319.06,327.019C318.224,327.502 317.241,327.628 316.298,327.376C315.354,327.123 314.568,326.522 314.083,325.683L308.192,315.483C307.19,313.742 307.788,311.504 309.529,310.502L314.942,307.374C314.953,307.369 314.961,307.36 314.973,307.354C315.003,307.338 315.031,307.318 315.06,307.298C315.079,307.284 315.099,307.27 315.116,307.256C315.141,307.239 315.166,307.22 315.192,307.197C315.211,307.18 315.231,307.164 315.25,307.144C315.27,307.127 315.29,307.107 315.309,307.088C315.329,307.065 315.352,307.046 315.371,307.023C315.388,307.004 315.402,306.987 315.416,306.967C315.436,306.942 315.455,306.917 315.475,306.891C315.489,306.872 315.5,306.855 315.514,306.835C315.531,306.807 315.548,306.782 315.565,306.754C315.576,306.734 315.587,306.712 315.599,306.692C315.613,306.664 315.627,306.639 315.638,306.61C315.649,306.585 315.66,306.563 315.672,306.537C315.68,306.512 315.691,306.487 315.7,306.462C315.711,306.434 315.719,306.406 315.728,306.377C315.733,306.355 315.742,306.33 315.747,306.307C315.753,306.276 315.761,306.245 315.767,306.215C315.77,306.192 315.776,306.17 315.778,306.147C315.784,306.116 315.787,306.083 315.79,306.052C315.792,306.029 315.795,306.004 315.795,305.979C315.798,305.951 315.798,305.92 315.798,305.892C315.798,305.864 315.798,305.836 315.795,305.807C315.795,305.782 315.792,305.757 315.79,305.729C315.787,305.698 315.784,305.667 315.778,305.633C315.776,305.611 315.77,305.589 315.767,305.566C315.759,305.532 315.753,305.499 315.745,305.465C315.742,305.454 315.739,305.443 315.736,305.428C314.97,302.691 314.47,299.841 314.251,296.961C314.251,296.952 314.248,296.944 314.248,296.933C314.245,296.893 314.24,296.854 314.234,296.815C314.231,296.798 314.229,296.778 314.223,296.759C314.217,296.725 314.209,296.691 314.2,296.655C314.195,296.632 314.186,296.61 314.181,296.587C314.172,296.559 314.161,296.531 314.153,296.506C314.141,296.478 314.133,296.45 314.122,296.424C314.111,296.402 314.102,296.38 314.091,296.36C314.077,296.329 314.063,296.298 314.046,296.27C314.038,296.253 314.026,296.236 314.015,296.217C313.998,296.186 313.979,296.158 313.959,296.13C313.948,296.113 313.937,296.096 313.925,296.082C313.906,296.054 313.883,296.026 313.861,295.998C313.849,295.984 313.835,295.967 313.821,295.953C313.799,295.927 313.776,295.902 313.754,295.88C313.737,295.863 313.72,295.846 313.703,295.832C313.681,295.81 313.656,295.79 313.633,295.77C313.614,295.753 313.594,295.739 313.574,295.725C313.552,295.706 313.527,295.689 313.501,295.672C313.482,295.658 313.459,295.644 313.437,295.633C313.411,295.616 313.386,295.599 313.358,295.585C313.339,295.574 313.316,295.563 313.294,295.551C313.266,295.537 313.235,295.526 313.207,295.512C313.184,295.504 313.164,295.495 313.142,295.487C313.108,295.475 313.077,295.464 313.044,295.456C313.024,295.447 313.002,295.442 312.982,295.436C312.945,295.428 312.912,295.419 312.878,295.414C312.864,295.411 312.853,295.408 312.842,295.405L306.673,294.316C305.719,294.147 304.885,293.617 304.326,292.817C303.765,292.016 303.548,291.051 303.717,290.099L305.764,278.495C306.109,276.516 308.004,275.19 309.986,275.539L316.143,276.622C316.174,276.628 316.202,276.631 316.23,276.634C316.244,276.636 316.261,276.639 316.275,276.639C316.326,276.645 316.374,276.648 316.424,276.648L316.444,276.648C317.123,276.648 317.738,276.243 318.008,275.626C319.187,273.031 320.63,270.533 322.303,268.202C322.312,268.194 322.314,268.183 322.323,268.174C322.343,268.143 322.362,268.115 322.379,268.084C322.39,268.065 322.401,268.045 322.413,268.025C322.43,267.997 322.444,267.969 322.458,267.938C322.469,267.916 322.48,267.891 322.489,267.868C322.5,267.843 322.511,267.818 322.519,267.79C322.531,267.761 322.539,267.733 322.547,267.705C322.556,267.683 322.562,267.66 322.567,267.635C322.576,267.604 322.584,267.576 322.59,267.545C322.595,267.52 322.598,267.498 322.601,267.475C322.606,267.444 322.612,267.413 322.615,267.382C322.618,267.357 322.618,267.335 322.62,267.309C322.62,267.281 322.623,267.25 322.623,267.22C322.623,267.194 322.623,267.166 322.62,267.141C322.62,267.113 322.62,267.088 322.618,267.06C322.615,267.031 322.612,267.001 322.606,266.97C322.604,266.947 322.601,266.925 322.595,266.9C322.59,266.869 322.584,266.838 322.576,266.807C322.57,266.784 322.564,266.762 322.559,266.74C322.55,266.709 322.542,266.681 322.531,266.65C322.522,266.627 322.514,266.605 322.505,266.582C322.494,266.554 322.483,266.526 322.472,266.498C322.46,266.476 322.449,266.45 322.435,266.425C322.424,266.403 322.41,266.377 322.399,266.355C322.382,266.327 322.365,266.302 322.348,266.273C322.337,266.254 322.323,266.234 322.309,266.217C322.289,266.189 322.267,266.161 322.247,266.133C322.239,266.125 322.233,266.113 322.225,266.105L318.201,261.307C316.91,259.765 317.112,257.463 318.651,256.172L327.674,248.599C329.216,247.308 331.518,247.51 332.807,249.046L336.827,253.841C336.838,253.855 336.852,253.867 336.864,253.881C336.872,253.892 336.883,253.903 336.894,253.914C336.939,253.962 336.987,254.007 337.035,254.049C337.043,254.055 337.049,254.06 337.054,254.066C337.113,254.114 337.175,254.159 337.24,254.198C337.243,254.201 337.245,254.201 337.248,254.203C337.31,254.24 337.372,254.274 337.436,254.302C337.445,254.305 337.453,254.31 337.462,254.313C337.596,254.372 337.737,254.411 337.88,254.434C337.897,254.437 337.914,254.437 337.93,254.439C337.992,254.448 338.057,254.451 338.119,254.453L338.149,254.453C338.206,254.453 338.265,254.451 338.323,254.445C338.34,254.442 338.357,254.439 338.374,254.437C338.416,254.431 338.458,254.425 338.5,254.414C338.52,254.411 338.54,254.406 338.562,254.4C338.601,254.389 338.638,254.38 338.677,254.366C338.697,254.361 338.717,254.352 338.739,254.344C338.776,254.33 338.815,254.316 338.851,254.296C338.863,254.293 338.874,254.288 338.885,254.285C340.37,253.566 341.903,252.937 343.464,252.395L343.464,254.487C327.539,260.442 316.927,275.673 316.927,292.769C316.927,315.3 335.258,333.631 357.786,333.631C380.32,333.631 398.648,315.3 398.648,292.769C398.648,275.673 388.035,260.442 372.11,254.487L372.11,252.395C373.671,252.937 375.207,253.569 376.69,254.285C376.701,254.288 376.712,254.293 376.72,254.296C376.76,254.313 376.796,254.33 376.836,254.344C376.855,254.352 376.878,254.361 376.897,254.366C376.934,254.378 376.97,254.389 377.007,254.397C377.029,254.403 377.055,254.411 377.077,254.417C377.111,254.422 377.144,254.428 377.178,254.434C377.212,254.437 377.245,254.442 377.276,254.445C377.324,254.451 377.372,254.453 377.42,254.453L377.434,254.453C377.445,254.453 377.459,254.451 377.473,254.451C377.526,254.451 377.58,254.448 377.633,254.439C377.655,254.437 377.678,254.434 377.7,254.431C377.762,254.422 377.824,254.408 377.886,254.392C377.891,254.392 377.897,254.389 377.902,254.389C377.97,254.369 378.037,254.344 378.102,254.316C378.119,254.31 378.133,254.302 378.15,254.296C378.203,254.271 378.253,254.243 378.304,254.215C378.318,254.206 378.329,254.201 378.343,254.192C378.402,254.156 378.458,254.116 378.512,254.072C378.529,254.057 378.543,254.043 378.557,254.032C378.596,253.999 378.632,253.962 378.669,253.926C378.686,253.909 378.703,253.889 378.719,253.869C378.728,253.858 378.739,253.85 378.748,253.841L382.765,249.046C383.386,248.305 384.265,247.853 385.236,247.766C386.21,247.681 387.154,247.979 387.898,248.602L396.921,256.172C397.662,256.795 398.117,257.674 398.202,258.648C398.289,259.622 397.994,260.566 397.37,261.307L393.347,266.105C393.333,266.122 393.322,266.139 393.308,266.156C393.299,266.17 393.288,266.181 393.28,266.195C393.255,266.229 393.232,266.262 393.21,266.299C393.204,266.31 393.196,266.318 393.19,266.33C393.167,266.369 393.145,266.408 393.125,266.45C393.123,266.456 393.117,266.464 393.114,266.47C393.094,266.515 393.075,266.56 393.058,266.608C393.055,266.61 393.055,266.613 393.052,266.616C393.036,266.667 393.019,266.714 393.007,266.765C393.005,266.768 393.005,266.77 393.005,266.773C392.991,266.821 392.979,266.874 392.971,266.925L392.971,266.936C392.963,266.984 392.957,267.034 392.954,267.082C392.954,267.09 392.954,267.099 392.951,267.104C392.948,267.149 392.948,267.197 392.948,267.242C392.948,267.253 392.951,267.265 392.951,267.276C392.954,267.318 392.957,267.36 392.96,267.402C392.963,267.419 392.965,267.433 392.965,267.447C392.971,267.486 392.979,267.526 392.988,267.565C392.991,267.579 392.993,267.596 392.999,267.61C393.007,267.649 393.019,267.688 393.03,267.725C393.036,267.742 393.041,267.756 393.044,267.77C393.058,267.809 393.075,267.849 393.089,267.885C393.094,267.899 393.1,267.91 393.106,267.924C393.125,267.964 393.145,268.003 393.167,268.039C393.173,268.051 393.179,268.062 393.184,268.073C393.21,268.112 393.232,268.149 393.26,268.188C393.263,268.194 393.266,268.199 393.271,268.205C394.942,270.533 396.391,273.037 397.575,275.645C397.578,275.651 397.581,275.656 397.587,275.665C397.651,275.802 397.733,275.932 397.831,276.044C397.842,276.061 397.856,276.075 397.867,276.086C397.915,276.142 397.966,276.193 398.022,276.238C398.022,276.24 398.025,276.24 398.027,276.243C398.081,276.288 398.14,276.33 398.199,276.37C398.213,276.378 398.224,276.386 398.238,276.395C398.364,276.474 398.502,276.532 398.645,276.577C398.654,276.58 398.662,276.583 398.673,276.586C398.743,276.605 398.814,276.62 398.887,276.631C398.889,276.631 398.892,276.631 398.895,276.634C398.968,276.642 399.044,276.648 399.117,276.648C399.122,276.648 399.128,276.65 399.134,276.65C399.153,276.65 399.17,276.648 399.187,276.648C399.221,276.645 399.252,276.645 399.282,276.642C399.313,276.639 399.347,276.634 399.378,276.631C399.395,276.628 399.412,276.625 399.431,276.622L405.588,275.539C407.568,275.19 409.466,276.518 409.814,278.495L411.858,290.096C412.206,292.075 410.878,293.971 408.904,294.319L402.733,295.405C402.722,295.405 402.711,295.411 402.697,295.414C402.66,295.419 402.624,295.428 402.59,295.436C402.57,295.442 402.553,295.447 402.536,295.453C402.497,295.464 402.461,295.475 402.424,295.49C402.407,295.495 402.393,295.504 402.376,295.509C402.34,295.523 402.303,295.54 402.267,295.557C402.253,295.565 402.239,295.571 402.225,295.579C402.191,295.599 402.155,295.619 402.121,295.638C402.11,295.647 402.096,295.655 402.084,295.664C402.051,295.686 402.017,295.711 401.983,295.737C401.975,295.745 401.964,295.753 401.953,295.762C401.919,295.787 401.888,295.815 401.857,295.843C401.849,295.852 401.84,295.86 401.832,295.869C401.801,295.899 401.77,295.93 401.742,295.964C401.734,295.972 401.728,295.981 401.719,295.989C401.691,296.023 401.666,296.057 401.638,296.093C401.632,296.102 401.627,296.11 401.621,296.118C401.596,296.155 401.573,296.191 401.551,296.228C401.545,296.239 401.54,296.25 401.531,296.262C401.515,296.298 401.495,296.332 401.478,296.368C401.472,296.385 401.464,296.399 401.458,296.416C401.444,296.447 401.43,296.481 401.419,296.514C401.411,296.537 401.405,296.559 401.397,296.582C401.388,296.61 401.38,296.638 401.374,296.666C401.366,296.694 401.36,296.722 401.354,296.753C401.349,296.775 401.343,296.801 401.34,296.826C401.335,296.86 401.332,296.891 401.326,296.924C401.326,296.938 401.324,296.949 401.324,296.964C401.107,299.833 400.608,302.68 399.841,305.431C399.836,305.445 399.836,305.457 399.833,305.471C399.824,305.501 399.816,305.532 399.81,305.563C399.805,305.591 399.802,305.617 399.796,305.642C399.793,305.67 399.788,305.698 399.785,305.726C399.782,305.757 399.779,305.785 399.779,305.816C399.779,305.838 399.777,305.864 399.777,305.886C399.785,305.939 399.785,305.973 399.785,306.007L399.779,305.984Z"/>
                </clipPath>
                <g clip-path="url(#_clip1)">
                    <rect x="300.016" y="221.307" width="115.887" height="128.617" style="fill:url(#_Linear2);fill-rule:nonzero;"/>
                </g>
            </g>
        </g>
        <g>
            <g>
                <clipPath id="_clip3">
                    <path d="M350.702,309.432C350.916,309.519 351.135,309.561 351.348,309.561C352.025,309.561 352.665,309.157 352.934,308.494L365.81,276.878C366.167,276.002 365.745,275.002 364.87,274.646C363.994,274.289 362.994,274.71 362.637,275.586L349.765,307.203C349.408,308.079 349.829,309.076 350.705,309.432L350.702,309.432Z"/>
                </clipPath>
                <g clip-path="url(#_clip3)">
                    <rect x="349.408" y="274.289" width="16.759" height="35.272" style="fill:url(#_Linear4);fill-rule:nonzero;"/>
                </g>
            </g>
        </g>
        <g>
            <g>
                <clipPath id="_clip5">
                    <path d="M327.495,292.039C327.495,292.494 327.677,292.929 327.997,293.252L343.633,308.887C343.97,309.222 344.408,309.387 344.846,309.387C345.284,309.387 345.722,309.222 346.056,308.887C346.724,308.219 346.724,307.135 346.056,306.467L331.627,292.042L346.056,277.613C346.724,276.945 346.724,275.861 346.056,275.193C345.387,274.525 344.304,274.525 343.633,275.193L327.997,290.829C327.674,291.149 327.495,291.587 327.495,292.039Z"/>
                </clipPath>
                <g clip-path="url(#_clip5)">
                    <rect x="327.495" y="274.525" width="19.229" height="34.862" style="fill:url(#_Linear6);fill-rule:nonzero;"/>
                </g>
            </g>
        </g>
        <g>
            <g>
                <clipPath id="_clip7">
                    <path d="M369.522,308.887C369.856,309.222 370.294,309.39 370.732,309.39C371.17,309.39 371.608,309.222 371.942,308.887L387.58,293.252C387.9,292.929 388.08,292.494 388.08,292.042C388.08,291.587 387.9,291.152 387.58,290.829L371.942,275.193C371.274,274.525 370.19,274.525 369.522,275.193C368.854,275.861 368.854,276.945 369.522,277.613L383.947,292.042L369.522,306.467C368.851,307.135 368.851,308.219 369.519,308.89L369.522,308.887Z"/>
                </clipPath>
                <g clip-path="url(#_clip7)">
                    <rect x="368.851" y="274.525" width="19.229" height="34.865" style="fill:url(#_Linear8);fill-rule:nonzero;"/>
                </g>
            </g>
        </g>
        <g transform="matrix(1,0,0,1,168.648,201.253)">
            <g>
                <path d="M14.746,126.836L2.066,91.595L-0.943,90.966L-0.943,89.978L11.556,89.978L11.556,90.966L7.457,91.595L17.126,118.2L23.696,101.028L20.316,91.595L16.183,90.966L16.183,89.978L29.536,89.978L29.536,90.966L25.673,91.505L35.421,118.155L45.09,92.987L40.014,90.966L40.014,89.978L49.672,89.978L49.672,90.966L46.258,92.942L33.399,126.836L33.04,126.836L24.28,102.601L15.105,126.836L14.746,126.836Z" style="fill:rgb(177,91,211);fill-rule:nonzero;"/>
            </g>
        </g>
        <g transform="matrix(1,0,0,1,217.25,201.253)">
            <g>
                <path d="M1.797,125.938L1.797,124.994L5.93,124.32L5.93,91.595L1.797,90.966L1.797,89.978L28.862,89.978L28.862,100.265L27.649,100.265L24.19,91.101L10.882,91.101L10.882,107.284L16.722,107.284L19.373,100.759L20.541,100.759L20.541,114.965L19.373,114.965L16.677,108.362L10.882,108.362L10.882,124.859L24.999,124.859L28.683,114.965L29.851,114.965L29.851,125.938L1.797,125.938Z" style="fill:rgb(177,91,211);fill-rule:nonzero;"/>
            </g>
        </g>
        <g transform="matrix(1,0,0,1,249.666,201.253)">
            <g>
                <path d="M1.797,124.994L5.93,124.32L5.93,91.595L1.797,90.966L1.797,89.978L15.509,89.978C18.744,89.978 21.318,90.278 23.236,90.876C25.159,91.477 26.554,92.381 27.425,93.594C28.292,94.807 28.728,96.401 28.728,98.378C28.728,102.699 25.999,105.459 20.541,106.655L20.541,106.879C23.87,107.329 26.459,108.317 28.301,109.844C30.143,111.372 31.063,113.5 31.063,116.223C31.063,119.525 29.856,121.97 27.447,123.557C25.036,125.146 21.776,125.938 17.666,125.938L1.797,125.938L1.797,124.994ZM15.869,106.52C18.264,106.52 20.105,105.846 21.394,104.499C22.688,103.145 23.337,101.225 23.337,98.737L23.337,98.468C23.337,93.557 20.726,91.101 15.509,91.101L10.882,91.101L10.882,106.52L15.869,106.52ZM17.666,124.859C20.209,124.859 22.186,124.118 23.595,122.636C25.01,121.153 25.718,119.031 25.718,116.268L25.718,115.774C25.718,113.051 25.016,111.012 23.618,109.665C22.225,108.317 20.24,107.643 17.666,107.643L10.882,107.643L10.882,124.859L17.666,124.859Z" style="fill:rgb(177,91,211);fill-rule:nonzero;"/>
            </g>
        </g>
        <g transform="matrix(1,0,0,1,433.64,197.477)">
            <g>
                <path d="M1.64,125.938L1.64,125.084L5.391,124.466L5.391,94.728L1.64,94.155L1.64,93.257L13.645,93.257L13.645,94.155L9.883,94.728L9.883,124.96L22.102,124.96L25.448,115.965L26.56,115.965L26.56,125.938L1.64,125.938Z" style="fill:rgb(177,91,211);fill-rule:nonzero;"/>
            </g>
        </g>
        <g transform="matrix(1,0,0,1,461.218,197.477)">
            <g>
                <path d="M-1.146,125.938L-1.146,125.084L2.864,123.444L14.667,92.437L15.318,92.437L26.47,124.466L30.232,125.084L30.232,125.938L18.227,125.938L18.227,125.084L21.574,124.545L18.104,114.864L7.232,114.864L3.919,123.444L7.603,125.084L7.603,125.938L-1.146,125.938ZM7.558,114.011L17.812,114.011L12.915,99.625L7.558,114.011Z" style="fill:rgb(177,91,211);fill-rule:nonzero;"/>
            </g>
        </g>
        <g transform="matrix(1,0,0,1,490.593,197.477)">
            <g>
                <path d="M1.64,125.084L5.391,124.466L5.391,94.728L1.64,94.155L1.64,93.257L14.094,93.257C17.037,93.257 19.378,93.532 21.125,94.077C22.868,94.616 24.134,95.441 24.92,96.547C25.712,97.648 26.111,99.097 26.111,100.894C26.111,104.819 23.632,107.323 18.676,108.407L18.676,108.609C21.692,109.022 24.039,109.923 25.718,111.315C27.394,112.702 28.233,114.634 28.233,117.11C28.233,120.106 27.136,122.327 24.943,123.77C22.747,125.216 19.788,125.938 16.06,125.938L1.64,125.938L1.64,125.084ZM14.42,108.283C16.599,108.283 18.272,107.674 19.44,106.453C20.614,105.226 21.203,103.482 21.203,101.219L21.203,100.972C21.203,96.511 18.833,94.279 14.094,94.279L9.883,94.279L9.883,108.283L14.42,108.283ZM16.06,124.96C18.373,124.96 20.17,124.287 21.45,122.939C22.73,121.591 23.371,119.665 23.371,117.155L23.371,116.706C23.371,114.23 22.736,112.377 21.473,111.147C20.206,109.92 18.401,109.305 16.06,109.305L9.883,109.305L9.883,124.96L16.06,124.96Z" style="fill:rgb(177,91,211);fill-rule:nonzero;"/>
            </g>
        </g>
    </g>
    <defs>
        <linearGradient id="_Linear2" x1="0" y1="0" x2="1" y2="0" gradientUnits="userSpaceOnUse" gradientTransform="matrix(130.563,111.421,-111.421,130.563,291.065,152.006)"><stop offset="0" style="stop-color:rgb(95,147,234);stop-opacity:1"/><stop offset="0.21" style="stop-color:rgb(96,147,233);stop-opacity:1"/><stop offset="0.21" style="stop-color:rgb(98,145,233);stop-opacity:1"/><stop offset="0.22" style="stop-color:rgb(100,144,232);stop-opacity:1"/><stop offset="0.23" style="stop-color:rgb(103,142,232);stop-opacity:1"/><stop offset="0.23" style="stop-color:rgb(104,142,231);stop-opacity:1"/><stop offset="0.25" style="stop-color:rgb(107,139,230);stop-opacity:1"/><stop offset="0.26" style="stop-color:rgb(110,137,230);stop-opacity:1"/><stop offset="0.26" style="stop-color:rgb(111,136,229);stop-opacity:1"/><stop offset="0.28" style="stop-color:rgb(115,133,228);stop-opacity:1"/><stop offset="0.29" style="stop-color:rgb(117,132,227);stop-opacity:1"/><stop offset="0.3" style="stop-color:rgb(123,128,226);stop-opacity:1"/><stop offset="0.31" style="stop-color:rgb(125,127,225);stop-opacity:1"/><stop offset="0.33" style="stop-color:rgb(129,124,224);stop-opacity:1"/><stop offset="0.34" style="stop-color:rgb(131,122,224);stop-opacity:1"/><stop offset="0.34" style="stop-color:rgb(132,122,223);stop-opacity:1"/><stop offset="0.35" style="stop-color:rgb(135,119,223);stop-opacity:1"/><stop offset="0.36" style="stop-color:rgb(136,119,222);stop-opacity:1"/><stop offset="0.36" style="stop-color:rgb(138,117,222);stop-opacity:1"/><stop offset="0.37" style="stop-color:rgb(139,117,221);stop-opacity:1"/><stop offset="0.38" style="stop-color:rgb(141,115,221);stop-opacity:1"/><stop offset="0.38" style="stop-color:rgb(143,114,220);stop-opacity:1"/><stop offset="0.38" style="stop-color:rgb(144,114,220);stop-opacity:1"/><stop offset="0.41" style="stop-color:rgb(150,109,218);stop-opacity:1"/><stop offset="0.41" style="stop-color:rgb(151,108,218);stop-opacity:1"/><stop offset="0.41" style="stop-color:rgb(152,108,218);stop-opacity:1"/><stop offset="0.42" style="stop-color:rgb(154,106,217);stop-opacity:1"/><stop offset="0.43" style="stop-color:rgb(155,106,217);stop-opacity:1"/><stop offset="0.43" style="stop-color:rgb(157,104,216);stop-opacity:1"/><stop offset="0.44" style="stop-color:rgb(158,103,216);stop-opacity:1"/><stop offset="0.45" style="stop-color:rgb(160,102,216);stop-opacity:1"/><stop offset="0.45" style="stop-color:rgb(161,101,215);stop-opacity:1"/><stop offset="0.45" style="stop-color:rgb(162,100,215);stop-opacity:1"/><stop offset="0.46" style="stop-color:rgb(164,100,215);stop-opacity:1"/><stop offset="0.46" style="stop-color:rgb(165,99,214);stop-opacity:1"/><stop offset="0.47" style="stop-color:rgb(167,97,214);stop-opacity:1"/><stop offset="0.47" style="stop-color:rgb(168,97,213);stop-opacity:1"/><stop offset="0.48" style="stop-color:rgb(171,94,213);stop-opacity:1"/><stop offset="0.49" style="stop-color:rgb(172,94,212);stop-opacity:1"/><stop offset="0.5" style="stop-color:rgb(174,92,212);stop-opacity:1"/><stop offset="0.5" style="stop-color:rgb(175,92,211);stop-opacity:1"/><stop offset="0.51" style="stop-color:rgb(178,89,211);stop-opacity:1"/><stop offset="0.52" style="stop-color:rgb(179,89,210);stop-opacity:1"/><stop offset="0.53" style="stop-color:rgb(182,86,209);stop-opacity:1"/><stop offset="0.53" style="stop-color:rgb(183,86,209);stop-opacity:1"/><stop offset="0.54" style="stop-color:rgb(186,84,209);stop-opacity:1"/><stop offset="0.54" style="stop-color:rgb(187,83,208);stop-opacity:1"/><stop offset="0.55" style="stop-color:rgb(189,82,208);stop-opacity:1"/><stop offset="0.55" style="stop-color:rgb(190,81,207);stop-opacity:1"/><stop offset="0.57" style="stop-color:rgb(193,79,206);stop-opacity:1"/><stop offset="0.58" style="stop-color:rgb(197,76,205);stop-opacity:1"/><stop offset="0.59" style="stop-color:rgb(200,74,204);stop-opacity:1"/><stop offset="0.61" style="stop-color:rgb(204,71,203);stop-opacity:1"/><stop offset="0.61" style="stop-color:rgb(205,70,203);stop-opacity:1"/><stop offset="0.62" style="stop-color:rgb(207,69,203);stop-opacity:1"/><stop offset="0.62" style="stop-color:rgb(208,69,202);stop-opacity:1"/><stop offset="0.64" style="stop-color:rgb(212,66,201);stop-opacity:1"/><stop offset="0.64" style="stop-color:rgb(214,64,201);stop-opacity:1"/><stop offset="0.65" style="stop-color:rgb(215,64,200);stop-opacity:1"/><stop offset="0.69" style="stop-color:rgb(225,56,197);stop-opacity:1"/><stop offset="0.69" style="stop-color:rgb(226,56,197);stop-opacity:1"/><stop offset="0.7" style="stop-color:rgb(230,53,196);stop-opacity:1"/><stop offset="0.71" style="stop-color:rgb(231,53,196);stop-opacity:1"/><stop offset="0.71" style="stop-color:rgb(233,51,195);stop-opacity:1"/><stop offset="0.72" style="stop-color:rgb(234,50,195);stop-opacity:1"/><stop offset="0.73" style="stop-color:rgb(236,49,195);stop-opacity:1"/><stop offset="0.73" style="stop-color:rgb(237,48,194);stop-opacity:1"/><stop offset="0.73" style="stop-color:rgb(238,47,194);stop-opacity:1"/><stop offset="0.74" style="stop-color:rgb(239,47,194);stop-opacity:1"/><stop offset="1" style="stop-color:rgb(239,46,194);stop-opacity:1"/></linearGradient>
        <linearGradient id="_Linear4" x1="0" y1="0" x2="1" y2="0" gradientUnits="userSpaceOnUse" gradientTransform="matrix(27.1118,23.1367,-23.1367,27.1118,344.175,200.632)"><stop offset="0" style="stop-color:rgb(153,107,217);stop-opacity:1"/><stop offset="0.02" style="stop-color:rgb(154,106,217);stop-opacity:1"/><stop offset="0.05" style="stop-color:rgb(156,105,217);stop-opacity:1"/><stop offset="0.06" style="stop-color:rgb(156,105,217);stop-opacity:1"/><stop offset="0.08" style="stop-color:rgb(157,104,216);stop-opacity:1"/><stop offset="0.09" style="stop-color:rgb(158,103,216);stop-opacity:1"/><stop offset="0.13" style="stop-color:rgb(160,102,216);stop-opacity:1"/><stop offset="0.14" style="stop-color:rgb(161,102,215);stop-opacity:1"/><stop offset="0.17" style="stop-color:rgb(163,100,215);stop-opacity:1"/><stop offset="0.19" style="stop-color:rgb(163,100,215);stop-opacity:1"/><stop offset="0.2" style="stop-color:rgb(164,99,214);stop-opacity:1"/><stop offset="0.22" style="stop-color:rgb(165,98,214);stop-opacity:1"/><stop offset="0.25" style="stop-color:rgb(167,97,214);stop-opacity:1"/><stop offset="0.27" style="stop-color:rgb(168,97,213);stop-opacity:1"/><stop offset="0.3" style="stop-color:rgb(170,95,213);stop-opacity:1"/><stop offset="0.31" style="stop-color:rgb(170,95,213);stop-opacity:1"/><stop offset="0.33" style="stop-color:rgb(171,94,213);stop-opacity:1"/><stop offset="0.34" style="stop-color:rgb(172,94,212);stop-opacity:1"/><stop offset="0.36" style="stop-color:rgb(173,93,212);stop-opacity:1"/><stop offset="0.36" style="stop-color:rgb(173,93,212);stop-opacity:1"/><stop offset="0.38" style="stop-color:rgb(174,92,212);stop-opacity:1"/><stop offset="0.41" style="stop-color:rgb(176,91,211);stop-opacity:1"/><stop offset="0.42" style="stop-color:rgb(176,91,211);stop-opacity:1"/><stop offset="0.45" style="stop-color:rgb(178,89,211);stop-opacity:1"/><stop offset="0.47" style="stop-color:rgb(179,89,210);stop-opacity:1"/><stop offset="0.48" style="stop-color:rgb(180,88,210);stop-opacity:1"/><stop offset="0.53" style="stop-color:rgb(183,86,209);stop-opacity:1"/><stop offset="0.55" style="stop-color:rgb(183,86,209);stop-opacity:1"/><stop offset="0.58" style="stop-color:rgb(185,84,209);stop-opacity:1"/><stop offset="0.59" style="stop-color:rgb(186,84,208);stop-opacity:1"/><stop offset="0.61" style="stop-color:rgb(187,83,208);stop-opacity:1"/><stop offset="0.67" style="stop-color:rgb(190,81,207);stop-opacity:1"/><stop offset="0.69" style="stop-color:rgb(191,80,207);stop-opacity:1"/><stop offset="0.72" style="stop-color:rgb(193,79,206);stop-opacity:1"/><stop offset="0.73" style="stop-color:rgb(194,78,206);stop-opacity:1"/><stop offset="0.77" style="stop-color:rgb(196,77,206);stop-opacity:1"/><stop offset="0.78" style="stop-color:rgb(197,77,205);stop-opacity:1"/><stop offset="0.8" style="stop-color:rgb(197,76,205);stop-opacity:1"/><stop offset="0.81" style="stop-color:rgb(198,75,205);stop-opacity:1"/><stop offset="0.86" style="stop-color:rgb(201,73,204);stop-opacity:1"/><stop offset="0.89" style="stop-color:rgb(203,72,204);stop-opacity:1"/><stop offset="0.91" style="stop-color:rgb(203,72,204);stop-opacity:1"/><stop offset="0.92" style="stop-color:rgb(204,71,203);stop-opacity:1"/><stop offset="0.94" style="stop-color:rgb(205,70,203);stop-opacity:1"/><stop offset="0.97" style="stop-color:rgb(207,69,203);stop-opacity:1"/><stop offset="0.98" style="stop-color:rgb(208,69,202);stop-opacity:1"/><stop offset="1" style="stop-color:rgb(209,68,202);stop-opacity:1"/></linearGradient>
        <linearGradient id="_Linear6" x1="0" y1="0" x2="1" y2="0" gradientUnits="userSpaceOnUse" gradientTransform="matrix(28.3418,24.1866,-24.1866,28.3418,326.156,196.302)"><stop offset="0" style="stop-color:rgb(128,125,225);stop-opacity:1"/><stop offset="0.02" style="stop-color:rgb(128,125,225);stop-opacity:1"/><stop offset="0.03" style="stop-color:rgb(129,124,224);stop-opacity:1"/><stop offset="0.05" style="stop-color:rgb(130,123,224);stop-opacity:1"/><stop offset="0.09" style="stop-color:rgb(133,121,223);stop-opacity:1"/><stop offset="0.11" style="stop-color:rgb(133,121,223);stop-opacity:1"/><stop offset="0.14" style="stop-color:rgb(135,119,222);stop-opacity:1"/><stop offset="0.2" style="stop-color:rgb(139,117,221);stop-opacity:1"/><stop offset="0.22" style="stop-color:rgb(140,116,221);stop-opacity:1"/><stop offset="0.27" style="stop-color:rgb(143,114,220);stop-opacity:1"/><stop offset="0.28" style="stop-color:rgb(143,114,220);stop-opacity:1"/><stop offset="0.31" style="stop-color:rgb(145,112,220);stop-opacity:1"/><stop offset="0.33" style="stop-color:rgb(146,112,219);stop-opacity:1"/><stop offset="0.36" style="stop-color:rgb(148,110,219);stop-opacity:1"/><stop offset="0.39" style="stop-color:rgb(150,109,218);stop-opacity:1"/><stop offset="0.39" style="stop-color:rgb(151,109,218);stop-opacity:1"/><stop offset="0.41" style="stop-color:rgb(151,108,218);stop-opacity:1"/><stop offset="0.44" style="stop-color:rgb(153,107,218);stop-opacity:1"/><stop offset="0.45" style="stop-color:rgb(153,107,217);stop-opacity:1"/><stop offset="0.48" style="stop-color:rgb(155,105,217);stop-opacity:1"/><stop offset="0.52" style="stop-color:rgb(157,104,216);stop-opacity:1"/><stop offset="0.53" style="stop-color:rgb(158,103,216);stop-opacity:1"/><stop offset="0.56" style="stop-color:rgb(160,102,216);stop-opacity:1"/><stop offset="0.58" style="stop-color:rgb(161,102,215);stop-opacity:1"/><stop offset="0.61" style="stop-color:rgb(163,100,215);stop-opacity:1"/><stop offset="0.61" style="stop-color:rgb(163,100,215);stop-opacity:1"/><stop offset="0.64" style="stop-color:rgb(164,99,214);stop-opacity:1"/><stop offset="0.66" style="stop-color:rgb(165,98,214);stop-opacity:1"/><stop offset="0.7" style="stop-color:rgb(168,96,213);stop-opacity:1"/><stop offset="0.83" style="stop-color:rgb(175,91,211);stop-opacity:1"/><stop offset="0.88" style="stop-color:rgb(178,89,211);stop-opacity:1"/><stop offset="0.89" style="stop-color:rgb(179,89,210);stop-opacity:1"/><stop offset="0.91" style="stop-color:rgb(180,88,210);stop-opacity:1"/><stop offset="0.95" style="stop-color:rgb(183,86,209);stop-opacity:1"/><stop offset="1" style="stop-color:rgb(185,84,209);stop-opacity:1"/></linearGradient>
        <linearGradient id="_Linear8" x1="0" y1="0" x2="1" y2="0" gradientUnits="userSpaceOnUse" gradientTransform="matrix(28.3427,24.1872,-24.1872,28.3427,360.995,203.939)"><stop offset="0" style="stop-color:rgb(177,90,211);stop-opacity:1"/><stop offset="0.02" style="stop-color:rgb(177,90,211);stop-opacity:1"/><stop offset="0.03" style="stop-color:rgb(178,89,211);stop-opacity:1"/><stop offset="0.05" style="stop-color:rgb(179,89,210);stop-opacity:1"/><stop offset="0.08" style="stop-color:rgb(181,87,210);stop-opacity:1"/><stop offset="0.11" style="stop-color:rgb(183,86,209);stop-opacity:1"/><stop offset="0.16" style="stop-color:rgb(185,84,209);stop-opacity:1"/><stop offset="0.17" style="stop-color:rgb(186,84,208);stop-opacity:1"/><stop offset="0.2" style="stop-color:rgb(188,82,208);stop-opacity:1"/><stop offset="0.23" style="stop-color:rgb(190,81,207);stop-opacity:1"/><stop offset="0.25" style="stop-color:rgb(191,80,207);stop-opacity:1"/><stop offset="0.28" style="stop-color:rgb(193,79,207);stop-opacity:1"/><stop offset="0.3" style="stop-color:rgb(194,79,206);stop-opacity:1"/><stop offset="0.33" style="stop-color:rgb(195,77,206);stop-opacity:1"/><stop offset="0.36" style="stop-color:rgb(197,76,205);stop-opacity:1"/><stop offset="0.38" style="stop-color:rgb(198,75,205);stop-opacity:1"/><stop offset="0.39" style="stop-color:rgb(199,75,205);stop-opacity:1"/><stop offset="0.39" style="stop-color:rgb(200,74,205);stop-opacity:1"/><stop offset="0.41" style="stop-color:rgb(200,74,204);stop-opacity:1"/><stop offset="0.42" style="stop-color:rgb(201,73,204);stop-opacity:1"/><stop offset="0.48" style="stop-color:rgb(205,71,203);stop-opacity:1"/><stop offset="0.5" style="stop-color:rgb(205,70,203);stop-opacity:1"/><stop offset="0.53" style="stop-color:rgb(207,69,202);stop-opacity:1"/><stop offset="0.55" style="stop-color:rgb(208,68,202);stop-opacity:1"/><stop offset="0.59" style="stop-color:rgb(211,66,201);stop-opacity:1"/><stop offset="0.61" style="stop-color:rgb(212,66,201);stop-opacity:1"/><stop offset="0.61" style="stop-color:rgb(212,65,201);stop-opacity:1"/><stop offset="0.66" style="stop-color:rgb(215,64,200);stop-opacity:1"/><stop offset="0.67" style="stop-color:rgb(215,63,200);stop-opacity:1"/><stop offset="0.72" style="stop-color:rgb(218,61,199);stop-opacity:1"/><stop offset="0.77" style="stop-color:rgb(221,59,199);stop-opacity:1"/><stop offset="0.78" style="stop-color:rgb(222,59,198);stop-opacity:1"/><stop offset="0.81" style="stop-color:rgb(224,57,198);stop-opacity:1"/><stop offset="0.84" style="stop-color:rgb(225,56,197);stop-opacity:1"/><stop offset="0.89" style="stop-color:rgb(228,54,197);stop-opacity:1"/><stop offset="0.91" style="stop-color:rgb(229,54,196);stop-opacity:1"/><stop offset="0.94" style="stop-color:rgb(231,52,196);stop-opacity:1"/><stop offset="0.97" style="stop-color:rgb(233,51,195);stop-opacity:1"/><stop offset="0.98" style="stop-color:rgb(234,50,195);stop-opacity:1"/><stop offset="1" style="stop-color:rgb(235,50,195);stop-opacity:1"/></linearGradient>
    </defs>
</svg>
