<svg xmlns="http://www.w3.org/2000/svg" xmlns:xlink="http://www.w3.org/1999/xlink" version="1.1" x="0px" y="0px" viewBox="206 206 100 125"
    enable-background="new 206 206 100 100" xml:space="preserve">
    <g>
        <path fill="#b15bd3"
            d="M288.594,285.941h6.905c0.313,0,0.567-0.254,0.567-0.567c0-3.721-1.17-7.262-3.385-10.239   c-2.166-2.912-5.129-5.029-8.564-6.123c-0.002-0.001-0.005-0.002-0.008-0.003c-0.005-0.002-0.011-0.004-0.016-0.005   c-0.072-0.023-0.146-0.048-0.226-0.071v-3.091c2.506-1.566,4.224-4.277,4.418-7.396c1.296-0.256,2.276-1.4,2.276-2.771   c0-1.363-0.971-2.503-2.256-2.767v-1.314c0-1.443-0.34-2.877-0.976-4.164c0.02-0.141,0.033-0.284,0.033-0.431v-0.113   c0-1.821-0.713-3.456-2.063-4.727c-0.922-0.868-2.012-1.421-2.274-1.421c-0.16,0-0.313,0.068-0.421,0.187   c-0.107,0.119-0.16,0.278-0.144,0.438c0.028,0.29-0.058,0.536-0.272,0.773c-1.102,1.216-4.9,1.649-8.09,1.649   c-0.345,0-0.549-0.005-0.554-0.006c-0.005,0-0.011,0-0.017,0c-1.714,0-3.108,1.394-3.108,3.108v0.113   c0,0.146,0.014,0.29,0.034,0.432c-0.636,1.286-0.975,2.72-0.975,4.163v1.314c-1.286,0.264-2.256,1.404-2.256,2.767   c0,1.371,0.98,2.515,2.276,2.771c0.141,2.291,1.099,4.427,2.736,6.065c0.515,0.515,1.08,0.96,1.682,1.336v3.085   c-0.077,0.023-0.15,0.047-0.222,0.069c-0.005,0.002-0.011,0.004-0.016,0.006c-0.006,0.002-0.011,0.003-0.016,0.005   c-5.066,1.615-9.104,5.51-10.915,10.489c-0.506-0.216-1.023-0.41-1.553-0.578c-0.073-0.023-0.148-0.047-0.225-0.07v-3.09   c2.507-1.566,4.226-4.278,4.419-7.396c1.297-0.256,2.277-1.4,2.277-2.771c0-1.362-0.971-2.503-2.257-2.767v-1.314   c0-1.443-0.339-2.877-0.975-4.164c0.02-0.141,0.034-0.284,0.034-0.431v-0.113c0-1.821-0.714-3.456-2.064-4.727   c-0.922-0.868-2.012-1.421-2.274-1.421c-0.16,0-0.313,0.068-0.421,0.187c-0.107,0.119-0.16,0.277-0.144,0.437   c0.029,0.29-0.058,0.536-0.272,0.773c-1.102,1.216-4.901,1.65-8.091,1.65c-0.344,0-0.548-0.006-0.553-0.006   c-0.006,0-0.011,0-0.017,0c-1.714,0-3.108,1.394-3.108,3.108v0.113c0,0.146,0.014,0.29,0.034,0.432   c-0.636,1.286-0.975,2.72-0.975,4.163v1.314c-1.286,0.264-2.257,1.404-2.257,2.767c0,1.371,0.981,2.516,2.277,2.771   c0.141,2.292,1.099,4.428,2.737,6.065c0.514,0.515,1.079,0.96,1.681,1.336v3.085c-0.076,0.023-0.15,0.046-0.222,0.069   c-0.008,0.003-0.016,0.006-0.024,0.008c0,0.001-0.001,0.001-0.001,0.001c-0.521,0.166-1.031,0.358-1.529,0.571   c-1.812-4.982-5.851-8.878-10.916-10.491c-0.004-0.001-0.008-0.002-0.012-0.004c-0.004-0.001-0.009-0.003-0.014-0.004   c-0.073-0.024-0.147-0.048-0.226-0.071v-3.091c2.506-1.565,4.225-4.277,4.418-7.396c1.296-0.256,2.277-1.4,2.277-2.771   c0-1.363-0.97-2.503-2.256-2.767v-1.314c0-1.443-0.339-2.877-0.975-4.164c0.02-0.142,0.034-0.285,0.034-0.431v-0.113   c0-4.489-4.152-6.119-4.194-6.13c-0.18-0.047-0.371-0.003-0.513,0.117s-0.215,0.303-0.197,0.488   c0.029,0.29-0.058,0.536-0.272,0.773c-1.101,1.216-4.9,1.649-8.089,1.649c-0.345,0-0.549-0.005-0.554-0.006   c-0.006,0-0.011,0-0.017,0c-1.714,0-3.108,1.394-3.108,3.108v0.113c0,0.146,0.014,0.29,0.034,0.432   c-0.636,1.286-0.974,2.719-0.974,4.163v1.314c-1.286,0.264-2.257,1.404-2.257,2.767c0,1.371,0.981,2.515,2.277,2.771   c0.141,2.291,1.099,4.427,2.737,6.065c0.515,0.515,1.079,0.959,1.681,1.336v3.085c-0.078,0.023-0.151,0.047-0.222,0.069   c-0.006,0.002-0.012,0.005-0.018,0.007c-0.004,0.001-0.008,0.002-0.012,0.004c-3.437,1.096-6.397,3.212-8.563,6.123   c-2.215,2.977-3.385,6.518-3.385,10.238c0,0.313,0.254,0.567,0.567,0.567h6.906h18.192c-1.815,2.783-2.772,5.994-2.772,9.354   c0,0.313,0.254,0.567,0.567,0.567h33.21c0.313,0,0.567-0.254,0.567-0.567c0-3.359-0.957-6.57-2.771-9.354H288.594z    M280.464,273.851c0,0.2-0.175,0.369-0.383,0.369h-2.375c-0.208,0-0.383-0.169-0.383-0.369s0.175-0.369,0.383-0.369h2.375   C280.289,273.482,280.464,273.651,280.464,273.851z M277.927,275.355h1.931l1.472,6.788l-2.437,2.429l-2.437-2.429L277.927,275.355   z M294.922,284.806h-5.761v-6.343c0-0.313-0.255-0.567-0.567-0.567c-0.313,0-0.568,0.254-0.568,0.567v6.343h-7.76l2.085-2.078   c0.137-0.137,0.195-0.333,0.154-0.521l-1.546-7.131c0.387-0.272,0.64-0.72,0.64-1.225c0-0.04-0.003-0.08-0.006-0.12   c1.354-0.734,2.338-1.973,2.745-3.447C290.522,272.505,294.694,278.226,294.922,284.806z M289.427,255.675   c0,0.733-0.469,1.358-1.121,1.592v-3.184C288.959,254.317,289.427,254.942,289.427,255.675z M271.556,246.885   c0-1.085,0.881-1.969,1.966-1.973c0.045,0.001,0.252,0.006,0.577,0.006c2.651,0,7.338-0.263,8.931-2.023   c0.2-0.221,0.349-0.462,0.444-0.719c0.994,0.607,2.755,2.057,2.755,4.709v0.113c0,1.088-0.885,1.973-1.973,1.973h-10.728   c-1.088,0-1.973-0.885-1.973-1.973V246.885z M268.359,255.675c0-0.732,0.468-1.358,1.121-1.591v3.184   C268.827,257.032,268.359,256.407,268.359,255.675z M270.615,257.856v-4.438v-1.825c0-0.936,0.155-1.839,0.454-2.702   c0.569,0.737,1.459,1.215,2.46,1.215h10.728c1.001,0,1.891-0.478,2.46-1.216c0.3,0.863,0.454,1.768,0.454,2.703v1.825v4.438   c0,4.564-3.713,8.276-8.277,8.276c-2.212,0-4.291-0.86-5.854-2.424C271.476,262.145,270.615,260.067,270.615,257.856z    M278.893,267.268c1.367,0,2.666-0.296,3.84-0.822v2.913c0,0.256,0.17,0.479,0.416,0.548c0.037,0.01,0.07,0.02,0.104,0.029   c-0.316,1.174-1.109,2.189-2.177,2.782c-0.267-0.23-0.615-0.371-0.996-0.371h-2.375c-0.382,0-0.729,0.141-0.996,0.372   c-1.067-0.594-1.86-1.608-2.178-2.783c0.034-0.01,0.068-0.02,0.105-0.029c0.246-0.068,0.417-0.292,0.417-0.548v-2.907   C276.247,266.985,277.548,267.268,278.893,267.268z M273.449,270.285c0.407,1.475,1.392,2.712,2.745,3.446   c-0.003,0.039-0.006,0.079-0.006,0.119c0,0.505,0.253,0.951,0.639,1.225l-1.545,7.131c-0.041,0.188,0.017,0.385,0.154,0.521   l2.083,2.078h-7.759v-6.343c0-0.313-0.255-0.567-0.567-0.567c-0.313,0-0.568,0.254-0.568,0.567v5.191   c-1.39-1.513-3.023-2.752-4.841-3.674C265.391,275.473,268.949,271.907,273.449,270.285z M266.535,265.595   c0,0.733-0.469,1.358-1.122,1.592v-3.183C266.066,264.238,266.535,264.863,266.535,265.595z M248.663,256.806   c0-1.085,0.881-1.969,1.966-1.973c0.045,0.001,0.252,0.006,0.577,0.006l0,0c2.652,0,7.339-0.263,8.932-2.023   c0.2-0.221,0.349-0.462,0.444-0.719c0.995,0.608,2.755,2.058,2.755,4.709v0.113c0,1.088-0.885,1.973-1.973,1.973h-10.728   c-1.088,0-1.973-0.885-1.973-1.973V256.806z M246.588,267.187c-0.653-0.233-1.122-0.858-1.122-1.592   c0-0.732,0.469-1.357,1.122-1.591V267.187z M247.722,267.777v-6.263c0-0.936,0.155-1.839,0.455-2.702   c0.569,0.737,1.458,1.216,2.459,1.216h10.728c1.001,0,1.891-0.479,2.46-1.216c0.299,0.863,0.454,1.768,0.454,2.702v1.824v4.438   c0,4.564-3.713,8.277-8.277,8.277c-2.212,0-4.291-0.861-5.854-2.425C248.584,272.066,247.722,269.988,247.722,267.777z    M256.001,277.189c1.367,0,2.665-0.295,3.837-0.821v2.912c0,0.21,0.115,0.402,0.3,0.501c0.043,0.022,0.087,0.039,0.132,0.05   c0.031,0.009,0.061,0.018,0.091,0.026c-0.317,1.174-1.11,2.189-2.178,2.783c-0.267-0.231-0.614-0.372-0.995-0.372h-2.375   c-0.381,0-0.729,0.141-0.996,0.372c-1.067-0.594-1.861-1.608-2.178-2.783c0.028-0.008,0.055-0.017,0.083-0.024   c0.047-0.011,0.094-0.028,0.138-0.052c0.185-0.099,0.3-0.291,0.3-0.501v-2.907C253.354,276.906,254.655,277.189,256.001,277.189z    M257.571,283.773c0,0.199-0.176,0.368-0.383,0.368h-2.375c-0.208,0-0.382-0.169-0.382-0.368c0-0.201,0.175-0.37,0.382-0.37h2.376   C257.396,283.403,257.571,283.572,257.571,283.773z M255.035,285.277h1.929l1.473,6.787L256,294.492l-2.437-2.429L255.035,285.277z    M248.217,279.981c-1.818,0.922-3.451,2.161-4.841,3.674v-5.191c0-0.313-0.254-0.567-0.567-0.567s-0.567,0.254-0.567,0.567v6.343   h-7.76l2.084-2.078c0.137-0.137,0.195-0.333,0.154-0.521l-1.545-7.131c0.386-0.272,0.64-0.72,0.64-1.225   c0-0.04-0.003-0.08-0.006-0.12c1.354-0.734,2.337-1.971,2.745-3.445C243.049,271.906,246.608,275.472,248.217,279.981z    M234.678,273.851c0,0.2-0.175,0.369-0.383,0.369h-2.375c-0.208,0-0.383-0.169-0.383-0.369s0.175-0.369,0.383-0.369h2.375   C234.503,273.482,234.678,273.651,234.678,273.851z M232.142,275.355h1.93l1.471,6.788l-2.436,2.429l-2.437-2.429L232.142,275.355z    M243.642,255.675c0,0.733-0.469,1.358-1.122,1.592v-3.184C243.173,254.317,243.642,254.942,243.642,255.675z M225.77,246.885   c0-1.085,0.882-1.969,1.966-1.973c0.045,0.001,0.252,0.006,0.578,0.006c2.651,0,7.338-0.263,8.931-2.023   c0.2-0.221,0.348-0.462,0.444-0.719c0.995,0.608,2.755,2.058,2.755,4.709v0.113c0,1.088-0.885,1.973-1.973,1.973h-10.727   c-1.088,0-1.974-0.885-1.974-1.973V246.885z M223.695,257.267c-0.653-0.234-1.122-0.859-1.122-1.592   c0-0.732,0.469-1.358,1.122-1.591V257.267z M224.83,257.856v-6.263c0-0.936,0.155-1.839,0.454-2.702   c0.569,0.737,1.458,1.215,2.46,1.215h10.727c1.001,0,1.891-0.478,2.46-1.216c0.3,0.863,0.455,1.768,0.455,2.703v1.823   c0,0,0,0.001,0,0.001v4.445c-0.003,4.561-3.715,8.27-8.276,8.27c-2.212,0-4.292-0.86-5.854-2.424   C225.691,262.145,224.83,260.067,224.83,257.856z M233.109,267.268c1.367,0,2.665-0.296,3.837-0.821v2.912   c0,0.256,0.171,0.479,0.417,0.548c0.037,0.01,0.07,0.02,0.105,0.029c-0.317,1.174-1.11,2.189-2.177,2.783   c-0.267-0.231-0.615-0.372-0.996-0.372h-2.375c-0.381,0-0.729,0.141-0.997,0.372c-1.067-0.594-1.86-1.608-2.177-2.783   c0.035-0.01,0.068-0.02,0.104-0.029c0.247-0.068,0.417-0.292,0.417-0.548v-2.907C230.461,266.985,231.762,267.268,233.109,267.268z    M223.407,277.896c-0.313,0-0.567,0.254-0.567,0.567v6.343h-5.761c0.228-6.578,4.397-12.298,10.584-14.522   c0.407,1.476,1.392,2.714,2.746,3.448c-0.003,0.039-0.006,0.079-0.006,0.119c0,0.505,0.253,0.951,0.639,1.225l-1.545,7.131   c-0.041,0.188,0.017,0.385,0.154,0.521l2.084,2.078h-7.76v-6.343C223.975,278.15,223.72,277.896,223.407,277.896z M242.975,285.913   c0.229-0.071,0.396-0.28,0.399-0.532c1.816-2.313,4.276-4.132,7.182-5.177c0.407,1.476,1.391,2.714,2.746,3.448   c-0.003,0.039-0.006,0.079-0.006,0.12c0,0.505,0.253,0.951,0.639,1.224l-1.545,7.13c-0.041,0.189,0.017,0.386,0.154,0.522   l2.084,2.078h-7.76v-6.343c0-0.313-0.254-0.567-0.568-0.567s-0.567,0.254-0.567,0.567v6.343h-5.76   C240.085,291.472,241.165,288.428,242.975,285.913z M266.268,294.727v-6.343c0-0.313-0.255-0.567-0.567-0.567   c-0.313,0-0.568,0.254-0.568,0.567v6.343h-7.76l2.085-2.078c0.137-0.137,0.194-0.333,0.154-0.522l-1.546-7.129   c0.387-0.273,0.64-0.72,0.64-1.225c0-0.041-0.003-0.081-0.006-0.121c1.354-0.734,2.338-1.973,2.744-3.447   c2.906,1.045,5.365,2.862,7.182,5.178c0.004,0.251,0.171,0.46,0.399,0.531c1.81,2.515,2.891,5.559,3.003,8.813H266.268z" />
        <path fill="#b15bd3"
            d="M236.636,287.817h-20.135c-0.313,0-0.567,0.254-0.567,0.567s0.254,0.567,0.567,0.567h20.135   c0.313,0,0.568-0.254,0.568-0.567S236.95,287.817,236.636,287.817z" />
        <path fill="#b15bd3"
            d="M231.591,290.592h-15.089c-0.313,0-0.567,0.254-0.567,0.567s0.254,0.567,0.567,0.567h15.089   c0.313,0,0.567-0.254,0.567-0.567S231.904,290.592,231.591,290.592z" />
        <path fill="#b15bd3"
            d="M228.843,293.367h-12.342c-0.313,0-0.567,0.254-0.567,0.567s0.254,0.567,0.567,0.567h12.342   c0.313,0,0.567-0.254,0.567-0.567S229.156,293.367,228.843,293.367z" />
        <path fill="#b15bd3"
            d="M295.499,287.817h-20.135c-0.313,0-0.567,0.254-0.567,0.567s0.254,0.567,0.567,0.567h20.135   c0.313,0,0.567-0.254,0.567-0.567S295.812,287.817,295.499,287.817z" />
        <path fill="#b15bd3"
            d="M295.499,290.592H280.41c-0.313,0-0.567,0.254-0.567,0.567s0.254,0.567,0.567,0.567h15.089   c0.313,0,0.567-0.254,0.567-0.567S295.812,290.592,295.499,290.592z" />
        <path fill="#b15bd3"
            d="M295.499,293.367h-12.341c-0.313,0-0.567,0.254-0.567,0.567s0.254,0.567,0.567,0.567h12.341   c0.313,0,0.567-0.254,0.567-0.567S295.812,293.367,295.499,293.367z" />
        <path fill="#b15bd3"
            d="M230.562,232.551c3.18,0,5.767-2.587,5.767-5.767s-2.587-5.767-5.767-5.767s-5.767,2.587-5.767,5.767   S227.383,232.551,230.562,232.551z M230.562,222.152c2.554,0,4.632,2.078,4.632,4.632s-2.078,4.632-4.632,4.632   c-2.554,0-4.632-2.078-4.632-4.632S228.008,222.152,230.562,222.152z" />
        <path fill="#b15bd3"
            d="M220.483,229.13h1.162l0.232,0.079c0.194,0.696,0.472,1.366,0.829,2l-0.108,0.221l-0.823,0.823   c-0.106,0.106-0.166,0.251-0.166,0.401s0.06,0.295,0.167,0.401l2.515,2.515c0.221,0.221,0.581,0.221,0.802,0l0.824-0.822   l0.22-0.108c0.634,0.357,1.305,0.635,2,0.829l0.079,0.232v1.145c0,0.006,0,0.012,0,0.018c0,0.085,0.02,0.172,0.06,0.254l0,0   c0.1,0.199,0.3,0.314,0.508,0.314c0.006,0,0.013,0,0.019,0h3.539c0.313,0,0.567-0.254,0.567-0.567V235.7l0.079-0.232   c0.348-0.097,0.695-0.217,1.033-0.357c0.331-0.137,0.655-0.295,0.967-0.472l0.221,0.108l0.823,0.822   c0.222,0.222,0.581,0.222,0.802,0l2.515-2.515c0.222-0.222,0.222-0.581,0-0.802l-0.822-0.824l-0.108-0.22   c0.357-0.633,0.635-1.304,0.828-2l0.232-0.079h1.163c0.313,0,0.567-0.254,0.567-0.568v-3.558c0-0.313-0.254-0.567-0.567-0.567   h-1.163l-0.232-0.079c-0.193-0.696-0.471-1.366-0.828-2l0.108-0.22l0.822-0.824c0.221-0.222,0.221-0.581,0-0.802l-2.515-2.515   c-0.222-0.222-0.581-0.222-0.802,0l-0.823,0.822l-0.221,0.108c-0.633-0.357-1.304-0.635-2-0.829l-0.079-0.232v-1.163   c0-0.313-0.254-0.567-0.568-0.567h-3.558c-0.313,0-0.567,0.254-0.567,0.567v1.164l-0.079,0.232c-0.696,0.193-1.367,0.471-2,0.829   l-0.221-0.108l-0.822-0.822c-0.222-0.222-0.581-0.222-0.803,0l-2.515,2.515c-0.106,0.106-0.167,0.25-0.167,0.401   c0,0.151,0.06,0.295,0.167,0.401l0.822,0.822l0.108,0.221c-0.357,0.633-0.635,1.304-0.829,2l-0.232,0.079h-1.162   c-0.313,0-0.567,0.254-0.567,0.567v3.558C219.916,228.876,220.17,229.13,220.483,229.13z M221.051,225.573h0.688   c0.063,0,0.124-0.01,0.183-0.03l0.611-0.208c0.184-0.063,0.324-0.215,0.369-0.405c0.19-0.792,0.504-1.55,0.933-2.252   c0.101-0.166,0.11-0.372,0.025-0.546l-0.285-0.579c-0.027-0.056-0.064-0.107-0.108-0.151l-0.488-0.488l1.713-1.712l0.487,0.488   c0.044,0.044,0.095,0.081,0.151,0.108l0.58,0.285c0.174,0.086,0.38,0.077,0.546-0.025c0.701-0.429,1.459-0.743,2.251-0.933   c0.189-0.045,0.342-0.185,0.405-0.369l0.208-0.611c0.02-0.059,0.03-0.121,0.03-0.183v-0.69h2.423v0.689   c0,0.063,0.01,0.124,0.03,0.183l0.208,0.61c0.063,0.184,0.215,0.323,0.405,0.369c0.792,0.191,1.55,0.504,2.251,0.933   c0.166,0.101,0.372,0.11,0.546,0.025l0.579-0.285c0.056-0.027,0.106-0.064,0.151-0.108l0.488-0.488l1.713,1.713l-0.488,0.489   c-0.044,0.044-0.08,0.095-0.107,0.15l-0.285,0.579c-0.086,0.174-0.076,0.38,0.025,0.546c0.429,0.703,0.742,1.46,0.932,2.252   c0.046,0.189,0.185,0.342,0.37,0.405l0.611,0.208c0.059,0.02,0.121,0.03,0.183,0.03h0.689v2.423h-0.689   c-0.062,0-0.124,0.01-0.183,0.03l-0.611,0.208c-0.185,0.063-0.324,0.215-0.37,0.405c-0.19,0.792-0.504,1.55-0.932,2.252   c-0.101,0.166-0.111,0.372-0.025,0.546l0.284,0.579c0.028,0.056,0.064,0.107,0.108,0.151l0.488,0.489l-1.712,1.712l-0.488-0.488   c-0.044-0.044-0.095-0.081-0.151-0.108l-0.58-0.285c-0.174-0.085-0.38-0.076-0.546,0.025c-0.344,0.211-0.708,0.396-1.081,0.551   c-0.382,0.159-0.775,0.287-1.169,0.381c-0.189,0.045-0.342,0.185-0.405,0.369l-0.208,0.611c-0.02,0.059-0.03,0.121-0.03,0.183   v0.689h-2.423v-0.689c0-0.063-0.01-0.124-0.03-0.183l-0.207-0.61c-0.063-0.185-0.216-0.324-0.405-0.369   c-0.792-0.19-1.549-0.504-2.252-0.933c-0.166-0.101-0.372-0.11-0.546-0.025l-0.578,0.285c-0.056,0.027-0.107,0.063-0.151,0.107   l-0.489,0.488l-1.713-1.712l0.488-0.488c0.044-0.044,0.081-0.095,0.108-0.151l0.285-0.579c0.085-0.174,0.076-0.38-0.025-0.546   c-0.429-0.702-0.743-1.46-0.933-2.252c-0.045-0.189-0.185-0.342-0.369-0.404l-0.611-0.208c-0.059-0.02-0.12-0.03-0.183-0.03h-0.688   V225.573z" />
        <path fill="#b15bd3"
            d="M281.438,232.551c3.18,0,5.767-2.587,5.767-5.767s-2.587-5.767-5.767-5.767s-5.767,2.587-5.767,5.767   S278.259,232.551,281.438,232.551z M281.438,222.152c2.555,0,4.632,2.078,4.632,4.632s-2.077,4.632-4.632,4.632   c-2.554,0-4.632-2.078-4.632-4.632S278.885,222.152,281.438,222.152z" />
        <path fill="#b15bd3"
            d="M271.359,229.13h1.163l0.232,0.079c0.193,0.696,0.471,1.366,0.828,2l-0.108,0.221l-0.822,0.823   c-0.222,0.222-0.222,0.581,0,0.803l2.515,2.515c0.222,0.221,0.581,0.222,0.803,0l0.823-0.822l0.221-0.108   c0.634,0.357,1.304,0.635,2,0.829l0.079,0.232v1.145c-0.001,0.006-0.001,0.012-0.001,0.018c0,0.085,0.02,0.172,0.061,0.254l0,0   c0.1,0.199,0.3,0.314,0.508,0.314c0.006,0,0.013,0,0.019,0h3.539c0.313,0,0.567-0.254,0.567-0.567V235.7l0.079-0.232   c0.348-0.097,0.694-0.216,1.033-0.357c0.33-0.137,0.654-0.295,0.967-0.472l0.221,0.108l0.822,0.822   c0.222,0.222,0.581,0.222,0.803,0l2.515-2.515c0.222-0.222,0.222-0.581,0.001-0.802l-0.822-0.824l-0.108-0.22   c0.356-0.633,0.634-1.304,0.828-2l0.232-0.079h1.162c0.313,0,0.567-0.254,0.567-0.568v-3.558c0-0.313-0.254-0.567-0.567-0.567   h-1.162l-0.232-0.079c-0.194-0.696-0.472-1.367-0.828-2l0.107-0.221l0.823-0.824c0.221-0.222,0.221-0.581-0.001-0.802l-2.515-2.515   c-0.222-0.222-0.581-0.222-0.802,0l-0.823,0.822l-0.221,0.108c-0.634-0.357-1.304-0.635-2-0.829l-0.079-0.232v-1.163   c0-0.313-0.254-0.567-0.567-0.567h-3.558c-0.313,0-0.567,0.254-0.567,0.567v1.164l-0.079,0.232c-0.696,0.193-1.367,0.471-2,0.829   l-0.221-0.108l-0.823-0.822c-0.222-0.222-0.581-0.222-0.803,0l-2.515,2.515c-0.222,0.222-0.222,0.581,0,0.802l0.822,0.822   l0.108,0.221c-0.357,0.633-0.635,1.304-0.828,2l-0.232,0.079h-1.163c-0.313,0-0.567,0.254-0.567,0.567v3.558   C270.792,228.876,271.046,229.13,271.359,229.13z M271.927,225.573h0.689c0.062,0,0.124-0.01,0.183-0.03l0.611-0.208   c0.184-0.063,0.323-0.215,0.369-0.405c0.189-0.792,0.504-1.55,0.932-2.252c0.102-0.166,0.111-0.372,0.025-0.546l-0.284-0.58   c-0.028-0.056-0.064-0.107-0.108-0.151l-0.487-0.488l1.712-1.712l0.488,0.488c0.044,0.044,0.095,0.081,0.15,0.108l0.579,0.285   c0.175,0.085,0.381,0.076,0.547-0.025c0.701-0.429,1.459-0.743,2.252-0.933c0.188-0.045,0.342-0.185,0.404-0.369l0.208-0.611   c0.02-0.059,0.03-0.121,0.03-0.183v-0.69h2.423v0.689c0,0.063,0.01,0.124,0.03,0.183l0.208,0.61   c0.063,0.184,0.215,0.323,0.404,0.369c0.792,0.191,1.55,0.505,2.252,0.933c0.165,0.101,0.371,0.11,0.546,0.025l0.578-0.285   c0.057-0.027,0.107-0.064,0.151-0.108l0.488-0.488l1.713,1.713l-0.488,0.489c-0.044,0.044-0.08,0.095-0.107,0.15l-0.284,0.579   c-0.086,0.174-0.077,0.38,0.024,0.546c0.429,0.702,0.742,1.459,0.933,2.252c0.046,0.189,0.185,0.342,0.369,0.405l0.611,0.208   c0.059,0.02,0.12,0.03,0.183,0.03h0.688v2.423h-0.688c-0.063,0-0.124,0.01-0.183,0.03l-0.611,0.208   c-0.185,0.063-0.323,0.215-0.369,0.405c-0.19,0.792-0.504,1.55-0.933,2.252c-0.102,0.166-0.11,0.372-0.024,0.546l0.284,0.579   c0.027,0.056,0.063,0.106,0.107,0.15l0.488,0.488l-1.713,1.713l-0.487-0.488c-0.044-0.044-0.096-0.081-0.151-0.108l-0.579-0.285   c-0.175-0.086-0.381-0.076-0.547,0.025c-0.345,0.211-0.709,0.396-1.081,0.551c-0.383,0.159-0.776,0.287-1.17,0.381   c-0.188,0.045-0.342,0.185-0.404,0.369l-0.208,0.611c-0.021,0.059-0.03,0.121-0.03,0.183v0.689h-2.423v-0.689   c0-0.063-0.011-0.124-0.03-0.183l-0.208-0.61c-0.063-0.184-0.215-0.323-0.404-0.369c-0.792-0.19-1.55-0.504-2.252-0.933   c-0.166-0.101-0.372-0.11-0.546-0.025l-0.579,0.285c-0.056,0.027-0.106,0.063-0.15,0.107l-0.488,0.488l-1.713-1.712l0.487-0.488   c0.044-0.044,0.08-0.095,0.107-0.151l0.285-0.579c0.086-0.174,0.076-0.38-0.025-0.546c-0.428-0.702-0.742-1.46-0.932-2.252   c-0.046-0.189-0.186-0.342-0.369-0.404l-0.611-0.208c-0.059-0.02-0.121-0.03-0.183-0.03h-0.689V225.573z" />
        <path fill="#b15bd3"
            d="M246.973,234.954c0.027,0.034,2.584,3.354,3.168,6.512c-0.304,0.289-0.495,0.695-0.495,1.146v0.101   c0,0.386,0.139,0.739,0.369,1.014c-0.23,0.274-0.369,0.628-0.369,1.014v0.101c0,0.872,0.709,1.581,1.581,1.581h1.095   c-0.042,0.142-0.065,0.292-0.065,0.446v0.102c0,0.872,0.709,1.581,1.581,1.581h4.325c0.871,0,1.581-0.709,1.581-1.581v-0.102   c0-0.155-0.023-0.304-0.065-0.446h1.095c0.871,0,1.581-0.709,1.581-1.581v-0.101c0-0.386-0.14-0.739-0.369-1.014   c0.229-0.275,0.369-0.628,0.369-1.014v-0.101c0-0.451-0.191-0.857-0.495-1.146c0.583-3.153,3.142-6.478,3.168-6.513   c0.008-0.01,0.015-0.02,0.021-0.03c1.221-1.806,1.866-3.917,1.866-6.104c0-6.019-4.896-10.915-10.915-10.915   s-10.915,4.896-10.915,10.915c0,2.188,0.645,4.298,1.866,6.104C246.959,234.934,246.966,234.944,246.973,234.954z M258.608,246.97   c0,0.246-0.199,0.446-0.445,0.446h-4.325c-0.246,0-0.446-0.2-0.446-0.446v-0.102c0-0.246,0.2-0.446,0.446-0.446h4.325   c0.246,0,0.445,0.2,0.445,0.446V246.97z M260.773,242.166c0.246,0,0.445,0.2,0.445,0.446v0.101c0,0.246-0.199,0.446-0.445,0.446   h-9.545c-0.246,0-0.446-0.2-0.446-0.446v-0.101c0-0.246,0.2-0.446,0.446-0.446H260.773z M261.219,244.842   c0,0.246-0.199,0.446-0.445,0.446h-9.545c-0.246,0-0.446-0.2-0.446-0.446v-0.101c0-0.246,0.2-0.446,0.446-0.446h9.545   c0.246,0,0.445,0.2,0.445,0.446V244.842z M256,219.04c5.392,0,9.78,4.387,9.78,9.78c0,1.954-0.574,3.84-1.661,5.454   c-0.221,0.286-2.643,3.489-3.33,6.759c-0.006,0-0.011-0.001-0.016-0.001h-9.545c-0.005,0-0.01,0.001-0.016,0.001   c-0.688-3.27-3.11-6.473-3.33-6.759c-1.087-1.614-1.662-3.5-1.662-5.454C246.22,223.427,250.608,219.04,256,219.04z" />
    </g>
</svg>
